<?xml version="1.0" standalone="no"?><!DOCTYPE svg PUBLIC "-//W3C//DTD SVG 1.1//EN" "http://www.w3.org/Graphics/SVG/1.1/DTD/svg11.dtd"><svg class="icon" width="64px" height="64.00px" viewBox="0 0 1024 1024" version="1.1" xmlns="http://www.w3.org/2000/svg"><path fill="#353535" d="M627.712 788.48a20.48 20.48 0 1 0 0-40.96H218.46016a20.48 20.48 0 1 0 0 40.96H627.712zM832.86016 583.68h-614.4a20.48 20.48 0 1 0 0 40.96h614.4a20.48 20.48 0 1 0 0-40.96zM832.86016 256h-614.4a20.48 20.48 0 1 0 0 40.96h614.4a20.48 20.48 0 1 0 0-40.96zM218.46016 460.8H627.712a20.48 20.48 0 1 0 0-40.96H218.46016a20.48 20.48 0 1 0 0 40.96z"  /></svg>