<?xml version="1.0" standalone="no"?><!DOCTYPE svg PUBLIC "-//W3C//DTD SVG 1.1//EN" "http://www.w3.org/Graphics/SVG/1.1/DTD/svg11.dtd"><svg t="1526469485927" class="icon" style="" viewBox="0 0 1024 1024" version="1.1" xmlns="http://www.w3.org/2000/svg" p-id="1029" xmlns:xlink="http://www.w3.org/1999/xlink" width="48" height="48"><defs><style type="text/css"></style></defs><path d="M957.142857 475.428571q0 30.285714-21.142857 51.428572l-372 372.571428q-22.285714 21.142857-52 21.142858-30.285714 0-51.428571-21.142858L88.571429 526.857143q-21.714286-20.571429-21.714286-51.428572 0-30.285714 21.714286-52l42.285714-42.857142q22.285714-21.142857 52-21.142858 30.285714 0 51.428571 21.142858l168 168V146.285714q0-29.714286 21.714286-51.428571t51.428571-21.714286h73.142858q29.714286 0 51.428571 21.714286t21.714286 51.428571v402.285715l168-168q21.142857-21.142857 51.428571-21.142858 29.714286 0 52 21.142858l42.857143 42.857142q21.142857 22.285714 21.142857 52z" p-id="1030" fill="#C2A469"></path></svg>