<?xml version="1.0" standalone="no"?><!DOCTYPE svg PUBLIC "-//W3C//DTD SVG 1.1//EN" "http://www.w3.org/Graphics/SVG/1.1/DTD/svg11.dtd"><svg class="icon" width="64px" height="64.00px" viewBox="0 0 1024 1024" version="1.1" xmlns="http://www.w3.org/2000/svg"><path fill="#353535" d="M953.942469 364.948595 437.862596 236.248617c-38.71879-9.631699-78.301553 14.111559-87.933252 52.862348L221.229366 805.190838c-9.695697 38.750789 14.07956 78.237555 52.79835 87.933252l516.047874 128.731977c38.71879 9.631699 78.301553-14.175557 87.933252-52.862348l128.731977-516.047874C1016.404517 414.195056 992.661259 374.644292 953.942469 364.948595zM930.519201 458.801662l-93.629074 375.380269c-3.1999 12.863598-16.415487 20.79935-29.279085 17.567451l-469.169338-116.988344c-12.895597-3.1999-20.831349-16.383488-17.631449-29.311084l93.629074-375.316271c3.1999-12.927596 16.415487-20.79935 29.311084-17.631449l469.137339 117.052342C925.815348 432.690478 933.7511 445.938064 930.519201 458.801662zM524.675883 442.610168m-65.661948 0a2.052 2.052 0 1 0 131.323896 0 2.052 2.052 0 1 0-131.323896 0ZM727.133557 537.999188c-4.351864-13.375582-16.159495-16.31949-26.23918-6.559795l-94.173057 90.941158c-10.079685 9.695697-24.287241 7.807756-31.519015-4.255867l-15.071529-24.991219c-7.263773-12.063623-23.007281-15.9995-35.038905-8.735727l-153.019218 91.261148c-12.063623 7.199775-10.527671 15.007531 3.071904 18.431424l99.164901 24.671229c13.631574 3.423893 35.902878 8.991719 49.566451 12.447611l117.148339 29.183088c13.631574 3.359895 35.934877 8.927721 49.566451 12.319615l99.132902 24.735227c13.631574 3.423893 21.023343-3.871879 16.671479-17.247461L727.133557 537.999188zM110.128838 255.288022l451.121902-174.042561c12.415612-4.767851 26.495172 1.439955 31.263023 13.823568l48.190494 125.852067 85.949314 21.43933-75.133652-195.897878c-14.367551-37.214837-56.574232-55.934252-93.789069-41.566701L61.458359 196.249867C24.243522 210.649417 5.524107 252.856098 19.891658 290.070935L180.046653 705.897941l30.527046-122.460173L96.241272 286.519046C91.50542 274.071435 97.713226 260.023874 110.128838 255.288022z" /></svg>