<?xml version="1.0" standalone="no"?><!DOCTYPE svg PUBLIC "-//W3C//DTD SVG 1.1//EN" "http://www.w3.org/Graphics/SVG/1.1/DTD/svg11.dtd"><svg class="icon" width="64px" height="64.00px" viewBox="0 0 1024 1024" version="1.1" xmlns="http://www.w3.org/2000/svg"><path fill="#353535" d="M958.502263 785.129634c0 14.432711-4.751211 22.565948-14.226003 35.842323-0.933255 1.325182-99.331309 129.779785-153.575748 128.068817-152.384619-4.77884-326.715063-149.344377-450.155467-269.822308C217.166041 558.790676 69.034283 386.981658 64.132646 237.598396l0-1.207501c0-52.326762 129.891326-147.633409 131.187855-148.539035 35.283598-24.086581 74.143651-15.338337 89.901543 6.65149 9.636474 13.331633 95.726202 159.875221 106.972337 177.812755 4.874007 7.80885 7.272637 17.301038 7.272637 27.709085 0 13.359262-5.913687 32.667004-13.701047 47.094598-7.602142 14.108323-85.87074 88.666412-98.079806 109.50502 13.220093 18.402115 60.017932 79.784114 129.718387 147.778718 69.15708 67.576071 130.617873 112.76425 149.562341 125.726469 21.330818-11.867282 104.021122-90.37124 118.337175-97.732905 27.110451-13.969153 54.143131-15.539928 72.399937-4.226255 17.228383 10.632151 165.833933 95.138824 179.953512 105.128339 13.381775 9.441023 20.710694 26.306132 20.710694 44.623313L958.502263 785.129634 958.502263 785.129634zM958.502263 785.129634" /></svg>