<?xml version="1.0" standalone="no"?><!DOCTYPE svg PUBLIC "-//W3C//DTD SVG 1.1//EN" "http://www.w3.org/Graphics/SVG/1.1/DTD/svg11.dtd"><svg class="icon" width="64px" height="64.00px" viewBox="0 0 1024 1024" version="1.1" xmlns="http://www.w3.org/2000/svg"><path fill="#353535" d="M972.850575 225.459903 292.529627 225.459903c-9.97412 0-18.062513-8.088393-18.062513-18.062513s8.088393-18.062513 18.062513-18.062513l680.320948 0c9.977732 0 18.062513 8.088393 18.062513 18.062513S982.828307 225.459903 972.850575 225.459903L972.850575 225.459903zM972.850575 540.733846 292.529627 540.733846c-9.97412 0-18.062513-8.084781-18.062513-18.062513 0-9.97412 8.088393-18.062513 18.062513-18.062513l680.320948 0c9.977732 0 18.062513 8.088393 18.062513 18.062513C990.913088 532.645453 982.828307 540.733846 972.850575 540.733846L972.850575 540.733846zM972.850575 855.870514 292.529627 855.870514c-9.97412 0-18.062513-8.084781-18.062513-18.062513s8.088393-18.062513 18.062513-18.062513l680.320948 0c9.977732 0 18.062513 8.084781 18.062513 18.062513S982.828307 855.870514 972.850575 855.870514L972.850575 855.870514zM72.470416 460.182262l82.477048 0c11.661159 0 21.198166 9.573132 21.198166 21.234291l0 82.440923c0 11.661159-9.540619 21.234291-21.198166 21.234291L72.470416 585.091766c-11.661159 0-21.230678-9.573132-21.230678-21.234291l0-82.440923C51.236125 469.755394 60.809257 460.182262 72.470416 460.182262M72.470416 140.728653l82.477048 0c11.661159 0 21.198166 9.504494 21.198166 21.234291l0 82.440923c0 11.664771-9.540619 21.234291-21.198166 21.234291L72.470416 265.638157c-11.661159 0-21.230678-9.56952-21.230678-21.234291L51.239738 161.962944C51.236125 150.233148 60.809257 140.728653 72.470416 140.728653M72.470416 764.669273l82.477048 0c11.661159 0 21.198166 9.56952 21.198166 21.230678l0 82.440923c0 11.664771-9.540619 21.237903-21.198166 21.237903L72.470416 889.578777c-11.661159 0-21.230678-9.56952-21.230678-21.237903L51.239738 785.899951C51.236125 774.238792 60.809257 764.669273 72.470416 764.669273" /></svg>