<?xml version="1.0" encoding="utf-8"?>
<!-- Generator: Adobe Illustrator 23.0.3, SVG Export Plug-In . SVG Version: 6.00 Build 0)  -->
<svg version="1.1" id="图层_1" xmlns="http://www.w3.org/2000/svg" xmlns:xlink="http://www.w3.org/1999/xlink" x="0px" y="0px"
	 width="750px" height="200px" viewBox="0 0 750 200" style="enable-background:new 0 0 750 200;" xml:space="preserve">
<style type="text/css">
	.st0{fill:#FFFFFF;}
	.st1{opacity:0.2;fill:#9D9D9E;enable-background:new    ;}
	.st2{fill:#DCB62D;}
	.st3{fill:#556080;}
	.st4{fill:#545353;}
	.st5{fill:#505C7A;}
	.st6{fill:#D2792D;}
	.st7{fill:#7E8CB9;}
	.st8{fill:#899DC9;}
	.st9{fill:#9CADD4;}
	.st10{fill:#E1C75C;}
	.st11{fill:none;stroke:#505C7A;stroke-width:2;stroke-linecap:round;stroke-miterlimit:10;}
	.st12{fill:#F3D55B;}
	.st13{fill:#E57E25;}
	.st14{fill:none;stroke:#F3D55B;stroke-width:2;stroke-linecap:round;stroke-miterlimit:10;}
	.st15{fill:none;stroke:#F29C1F;stroke-width:2;stroke-linecap:round;stroke-miterlimit:10;}
	.st16{fill:#F0C419;}
	.st17{fill:#EBEFEF;}
	.st18{fill:#CFD2D0;}
	.st19{fill:none;stroke:#BBC1C5;stroke-width:2;stroke-miterlimit:10;}
	.st20{fill:#E78846;}
	.st21{fill:#37444E;}
	.st22{fill:#526877;}
	.st23{fill:none;stroke:#37444E;stroke-width:2;stroke-miterlimit:10;}
	.st24{fill:#95A5A5;}
	.st25{fill:#CBB292;}
	.st26{fill:#8697CB;}
	.st27{fill:#E6E7E8;}
	.st28{fill:#F18D46;}
	.st29{opacity:0.5;}
	.st30{fill:none;stroke:#8697CB;stroke-width:2;stroke-linecap:round;stroke-miterlimit:10;}
	.st31{opacity:0.5;fill:#E4E4E3;enable-background:new    ;}
	.st32{opacity:0.3;fill:#E4E4E3;enable-background:new    ;}
	.st33{fill:#235178;}
	.st34{fill:#2F9C5A;}
	.st35{fill:#EAB674;}
	.st36{fill:#7FAF56;}
	.st37{fill:#C25547;}
	.st38{fill:#EDE0A9;}
	.st39{fill:#EACE5C;}
	.st40{fill:#525E7D;}
	.st41{fill:#BBC1C5;}
	.st42{fill:#8191C2;}
	.st43{fill:#1E8BCC;}
	.st44{fill:#E5E6E7;}
	.st45{fill:#A4A4A3;}
	.st46{fill:#59464D;}
	.st47{fill:#AB7E65;}
	.st48{fill:none;stroke:#59464D;stroke-width:2;stroke-linecap:round;stroke-miterlimit:10;}
	.st49{fill:#7D5A52;}
	.st50{fill:#221714;}
	.st51{fill:#EBB883;}
	.st52{fill:#EDCA8B;}
	.st53{fill:#A77C64;}
</style>
<g>
	<path class="st0" d="M14.4,95c1.3,0,2.4-1.1,2.4-2.4c0-1.3-1.1-2.4-2.4-2.4c-1.3,0-2.4,1.1-2.4,2.4C12,93.9,13.1,95,14.4,95z"/>
	<circle class="st0" cx="19.2" cy="73.1" r="1.8"/>
	<path class="st0" d="M50.5,62.6c1.2,0,2.2-1,2.2-2.2c0-1.2-1-2.2-2.2-2.2s-2.2,1-2.2,2.2C48.3,61.6,49.3,62.6,50.5,62.6z"/>
	<path class="st0" d="M8.8,95c1.3,0,2.4-1.1,2.4-2.4c0-1.3-1.1-2.4-2.4-2.4s-2.4,1.1-2.4,2.4C6.4,93.9,7.4,95,8.8,95z"/>
	<path class="st0" d="M362.7,5.8c1.4,0.4,2.9-0.4,3.3-1.8s-0.4-2.9-1.8-3.3c-1.4-0.4-2.9,0.4-3.3,1.8C360.5,3.9,361.3,5.4,362.7,5.8
		z"/>
	<path class="st0" d="M708.7,104.1c1.3-1.2,2.5-2.6,3.3-4.3c3.8-7.4,0.8-16.5-6.6-20.3c-0.7-0.4-1.4-0.6-2.2-0.9
		c0.1-0.3,0.2-0.5,0.3-0.8l19.7,1.6c0.3-1.3,0.5-2.6,0.7-3.7c-0.6,0.1-0.6,0-0.7-0.1l-18.8-1.6c0.1-0.9,0.2-1.7,0.2-2.6l10.6,0.9
		c0,0,0,0,0.1,0c0.1-1.3,0.1-2.6-0.1-3.8l-11-0.9c-0.1-0.3-0.1-0.6-0.2-0.8l4.7,0.4c0.1,0,0.4,0,0.6-0.1c-0.3-1.3-0.5-2.5-0.8-3.8
		l-5.9-0.5c-0.3-0.6-0.6-1.2-1-1.8l6,0.5c0.2,0,0.6-0.1,0.7-0.2c-0.5-1-0.9-1.9-1.4-2.8l-4.9-0.4c0.2-0.3,0.4-0.7,0.4-1
		c0.1-1.2-0.8-2.2-1.9-2.3s-2.2,0.8-2.3,1.9c0,0.1,0,0.2,0,0.3c-1.2-1.1-2.6-2.1-4.2-2.9c-3.7-1.9-7.7-2.5-11.7-2L682,52l-8.5,1.6
		c-9.4-4.3-20.7-0.5-25.4,8.8c-1,2-1.6,4-1.9,6.1c-26.9-12.2-57-22.6-89.6-30.9l0.7-2.1l5.1-2.6l2.6,0.8c0.9,0.3,1.9-0.2,2.1-1.1
		c0.3-0.9-0.1-1.8-1.1-2.1l-2.6-0.8l-2.6-5.1l0.8-2.6c0.3-0.9-0.2-1.9-1.1-2.1s-1.9,0.2-2.1,1.1l-0.8,2.6l-5.1,2.6l-2.6-0.8
		c-0.4-0.1-0.8-0.1-1.1,0.1l0.1-1.1l-6.4-1.4l0.4-2c1.3-6.3-2.7-12.3-8.8-13.6c-6.3-1.3-12.3,2.7-13.6,8.8l-0.4,2l-6.4-1.4
		l-3.5,10.8c-25.9-4.6-53-8-81-9.9c0.2-0.8-0.3-1.7-1.2-2l-2.6-0.8l-2.8-5.2l0.8-2.6c0.3-0.9-0.3-1.9-1.2-2.2
		c-0.9-0.3-1.9,0.3-2.2,1.2l-0.8,2.6l-5.2,2.8l-2.6-0.8c-0.9-0.3-1.9,0.3-2.2,1.2c-0.3,0.9,0.3,1.9,1.2,2.2l2.6,0.8l1.1,2
		c-4-0.2-8-0.4-12-0.5c-0.1-0.2-0.3-0.3-0.4-0.5C394.9,9.2,386,5.5,376.5,5.5c-9.5,0-18.4,3.7-25.1,10.4c-0.2,0.2-0.3,0.3-0.4,0.5
		c-3.6,0.1-7.2,0.2-10.8,0.4c0.2-0.3,0.4-0.6,0.5-1c0.5-1.7-0.5-3.6-2.2-4.1s-3.6,0.5-4.1,2.2c-0.3,1.1,0,2.3,0.7,3.2
		c-35.3,1.8-69.4,5.8-101.5,11.8l-3.9-4.3l-2.5-21.9l-11.2,14.1l-3.2,1.9c0.1-0.2,0.1-0.5,0.1-0.7c0-1.7-1.4-3-3-3c-1.7,0-3,1.4-3,3
		c0,1.4,1,2.6,2.3,2.9l-8.4,5l-15-4.9l-5.1,20.2c-31,8.6-59.6,19.1-85.1,31.4c2.8-4.1,4-7,3.1-7.8c-1.3-1.3-7.2,2.1-15.4,8.7
		c-1.9,0.3-4,0.7-6.3,1.4c-0.2,0.1-0.4,0.1-0.6,0.2l-4.4-3.1c-5-3.8-11.6-5-17.6-3.2c-1.7,0.5-3.2,1.2-4.7,2.1
		c-2.8,1.7-5.1,4.1-6.8,7c0-0.8-0.5-1.4-1.3-1.4h-2.2L35.7,73v-2.2c0-0.7-0.6-1.3-1.3-1.3c-0.7,0-1.3,0.6-1.3,1.3V73l-3.4,3.4h-2.2
		c-0.7,0-1.3,0.6-1.3,1.3c0,0.7,0.6,1.3,1.3,1.3h2.2l3.4,3.4v2.2c0,0.7,0.6,1.3,1.3,1.3c0.7,0,1.3-0.6,1.3-1.3v-2.1l3.4-3.4h2.2
		c0.3,0,0.5-0.1,0.7-0.2c-0.1,0.3-0.3,0.6-0.4,0.9c-1.6,3.6-2.1,7.7-1.4,11.5l0.8,5.3c-3.2,3.3-5.6,6.5-6.9,9.4
		c-0.8,1.8-1.2,3.3-1.4,4.6c-42,32.8-66.4,71.9-66.4,114C-33.6,339.7,149.4,433,375,433s408.6-93.3,408.6-208.5
		C783.6,179.7,755.8,138.1,708.7,104.1z M553.3,36.9c-1.9-0.5-3.8-0.9-5.7-1.4l0.8-7.1c0.1,0.1,0.3,0.2,0.4,0.2l2.6,0.8l2.6,5.1
		L553.3,36.9z"/>
	<path class="st0" d="M401.3,11.2c1.5,0.5,3.1-0.4,3.5-1.9c0.5-1.5-0.4-3.1-1.9-3.5c-1.5-0.5-3.1,0.4-3.5,1.9
		C398.9,9.2,399.8,10.7,401.3,11.2z"/>
	<path class="st0" d="M499,15c-0.5,1.7,0.4,3.4,2,4s3.4-0.4,4-2s-0.4-3.4-2-4C501.3,12.4,499.5,13.3,499,15z"/>
	<path class="st0" d="M496.7,11c1.7,0.6,3.6-0.4,4.2-2.1c0.6-1.7-0.4-3.6-2.1-4.2c-1.7-0.6-3.6,0.4-4.2,2.1S495,10.4,496.7,11z"/>
	<path class="st0" d="M511.2,12.6c1.6,0.5,3.4-0.4,3.9-2c0.5-1.6-0.4-3.4-2-3.9c-1.6-0.5-3.4,0.4-3.9,2
		C508.7,10.3,509.6,12,511.2,12.6z"/>
	<circle class="st0" cx="241.4" cy="18" r="3"/>
	<circle class="st0" cx="664.7" cy="48.1" r="2.5"/>
	<path class="st0" d="M672.3,48.8c1.4,0.1,2.7-0.9,2.8-2.4c0.1-1.4-0.9-2.7-2.4-2.8c-1.4-0.1-2.7,0.9-2.8,2.4S670.8,48.7,672.3,48.8
		z"/>
</g>
<path class="st1" d="M377,49.7C166,49.7-5,131.8-5,233S166,416.2,377,416.2s382-82,382-183.2S588,49.7,377,49.7z M377,413
	C169.7,413,1.8,332.4,1.8,233s168-180,375.2-180s375.2,80.6,375.2,180S584.3,413,377,413z"/>
<ellipse id="XMLID_1348_" class="st2" cx="371.3" cy="875.5" rx="246.7" ry="101.5"/>
<g id="XMLID_59_">
	<g id="XMLID_60_">
		<path id="XMLID_61_" class="st3" d="M215.7,21l-12.9,7.7l-12.6-4.2l-4.8,18.9l8,12.1l-0.6,9.8l18.1,5L225,59.1l16.1,1.9l0.1-18.2
			l-13.9-15.2l-2.1-18.5L215.7,21z M215.4,25.3l0.9,9l-13.4,1.8l1.6-4.2L215.4,25.3z M217.2,37.9l3.6,7.6L210,50l-6.7-10.3
			L217.2,37.9z M192.7,29.2l7.9,2.6l-1.9,5.1l-8.9,3.3L192.7,29.2z M190.1,44l9.4-3.4l6.9,10.5L196,53L190.1,44z M196.5,62.6
			l0.4-6.1l10.7-2.1l0.8,11.4L196.5,62.6z M212,64.7l-0.8-11.3l10.4-4.4l0.9,7.4L212,64.7z M237.5,56.9L226,55.6l-0.9-7.7l12.4-2.3
			L237.5,56.9z M235.9,42.3L235.9,42.3l-11.7,2.1l-3.8-8.1l5.1-5.3L235.9,42.3L235.9,42.3z M223.7,27.7l-4.1,4.2l-0.9-9l3.8-4.8
			L223.7,27.7z"/>
	</g>
</g>
<g>
	<g>
		<path class="st4" d="M499.8,67.5c-0.7,1.9-1.4,3.6-2,5.2l5,1l-0.3,1.7c-1.1,4.7-2.8,8.6-5.1,11.8c1.4,1.6,2.5,3,3.3,4.2l-2.6,2.1
			c-0.7-1.2-1.7-2.4-2.7-3.8c-1.9,2-4.1,3.6-6.6,4.9l-1.6-3.1c2.4-1.1,4.4-2.5,6.2-4.3c-1.1-1.4-2.4-2.8-3.8-4.3
			c1.4-2.4,2.7-5,4-7.8l-2.8-0.6l0.6-3.1l3.5,0.7c0.7-1.8,1.4-3.6,2.1-5.5L499.8,67.5z M499.1,76.1l-2.5-0.5
			c-1.2,2.8-2.4,5.1-3.5,6.9c0.8,0.8,1.5,1.5,2.1,2.2C496.8,82.3,498.2,79.5,499.1,76.1z M508.4,82l0.7-3.3c1.7-1,3.5-2.3,5.2-3.9
			l-9.9-2l0.6-3.1l13.5,2.7l-0.6,3.1c-1.8,1.7-3.7,3.3-5.9,4.8l-0.5,2.4l5.8,1.2l-0.6,3.1l-5.8-1.2l-1.7,8.7c-0.5,2.4-1.6,3.4-3.4,3
			l-4.5-0.9l-0.2-3.2c1.2,0.3,2.6,0.6,4,0.9c0.5,0.1,0.9-0.4,1.1-1.4l1.5-7.8l-6.5-1.3l0.6-3.1L508.4,82z"/>
		<path class="st4" d="M522.2,85.6l-2.6-1.3c1.5-3,2.6-6.3,3.4-9.8l2.8,0.8c-0.3,1.1-0.6,2.3-0.9,3.4l1.3,0.3l1.2-6l3.1,0.6l-1.2,6
			l2.1,0.4l-0.6,3l-2.1-0.4l-1.2,6.1c0.7-0.2,1.4-0.4,2.1-0.5l-0.6,3c-0.7,0.2-1.4,0.3-2.1,0.5l-2,10l-3.1-0.6l1.7-8.8
			c-1.5,0.2-2.9,0.4-4.5,0.6l-0.1-3.2c1.7,0,3.5-0.1,5.2-0.4l1.4-7.2l-1.7-0.3C523.3,83,522.8,84.4,522.2,85.6z M538.6,75.9
			c-0.6,1.3-1.1,2.5-1.7,3.7l11.4,2.3c-2.1,10.5-3.5,17-4.3,19.4c-0.9,2.5-2.9,3.5-6,2.9c-0.4-0.1-1.2-0.3-2.3-0.6l-0.2-3
			c1,0.3,1.8,0.5,2.5,0.7c1.6,0.3,2.7-0.3,3.3-2c0.5-1.4,1.6-6.4,3.3-14.9l-1.1-0.2c-1.6,4.7-3.3,8.4-5,11c-2,2.9-4.7,5.4-7.9,7.4
			l-1.5-2.9c2.9-1.7,5.3-3.9,7.1-6.4c1.6-2.4,3.1-5.6,4.5-9.7l-1.5-0.3c-2.5,6.2-5.8,10.4-9.7,12.8l-1.6-2.8
			c3.4-1.9,6.2-5.4,8.4-10.5l-1.3-0.3c-1.1,1.6-2.3,3-3.5,4l-1.9-2.4c2.3-2,4.4-5.1,6-9.4L538.6,75.9z"/>
	</g>
</g>
<g id="XMLID_55_">
	<g id="XMLID_56_">
		<g id="XMLID_57_">
			<path id="XMLID_58_" class="st5" d="M546,25.9l-5.5-1.2l0.4-1.7c1.2-5.4-2.3-10.7-7.6-11.8c-5.4-1.2-10.7,2.3-11.8,7.6l-0.4,1.7
				l-5.5-1.2l-11.9,37.1l38.2,8.2L546,25.9z M524.8,19.5c0.7-3.5,4.2-5.7,7.6-5s5.7,4.2,5,7.6l-0.4,1.7l-12.6-2.7
				C524.4,21.2,524.8,19.5,524.8,19.5z M508,53.7l9.7-30.3l2.5,0.5l-1,4.9l3.4,0.7l1-4.9l12.6,2.7l-1,4.9l3.4,0.7l1-4.9l2.5,0.5
				l-3.5,31.6L508,53.7z"/>
		</g>
	</g>
</g>
<g>
	<g>
		<path class="st4" d="M647.6,115.5c-1.7-0.1-3.5-0.3-5.3-0.6l-2.4,5.8c-0.8,1.9-2.2,2.4-4.2,1.6l-3.2-1.3l0.5-3.1
			c1,0.5,1.9,1,2.8,1.3c0.7,0.3,1.1,0.1,1.4-0.6l1.8-4.3c-1.8-0.3-3.6-0.7-5.5-1.2l0.8-3.2c2.1,0.5,4.1,0.9,6,1.3l2-4.9l-5.6-2.3
			l1.2-2.9l5.6,2.3l1.1-2.7c-1.5-0.3-3-0.6-4.5-1l0.5-3.1c4.1,1.2,8,1.8,11.6,1.8l-0.1,3.2c-1.3-0.1-2.7-0.2-4.2-0.4l-1.4,3.3
			l5.9,2.4c0.7-2.3,1.7-4.7,2.8-7.3l3,1.2c-1.1,2.8-2,5.2-2.7,7.4l8.5,3.5l-1.2,2.9l-8.3-3.4c-0.6,1.9-1,3.5-1.1,4.9
			c-0.1,0.5-0.1,1-0.2,1.4c1.8-1,3.5-2.2,5.1-3.6l2,2.4c-2.3,2.1-4.8,3.7-7.3,4.9c0,0.8,0.1,1.5,0.2,2.1c0.3,1.6,0.7,2.5,1.1,2.6
			c0.3,0.1,1.2-1.2,2.7-3.9l2.1,2.5c-2.4,3.8-4.3,5.4-5.7,4.8c-1.3-0.5-2.2-1.9-2.9-4.2c-0.2-0.9-0.4-1.8-0.5-2.8
			c-2.6,0.8-5.3,1.2-8,1.1l-0.6-3.2c3,0.1,5.9-0.3,8.6-1.3c0.1-1,0.2-2.1,0.3-3.2c0.2-1.7,0.6-3.6,1.2-5.8l-6.1-2.5l-1.7,4.2
			c1.8,0.3,3.6,0.5,5.3,0.6L647.6,115.5z M664.6,108.6l-3,1.3c-0.7-1.7-1.8-3.7-3.4-6.1l2.8-1.1
			C662.5,104.8,663.7,106.8,664.6,108.6z"/>
		<path class="st4" d="M669.9,134.8l-2.9-1.2l0.6-1.4l-4.2-1.7l-0.9,2.3l-2.9-1.2l8.6-20.8l2.7,1.1c1.1-1.3,2.2-2.7,3.1-4.3l2.8,1.6
			c-0.9,1.4-2,2.7-3,3.8l4.3,1.8L669.9,134.8z M668.7,129.5l2.2-5.4l-4.2-1.7l-2.2,5.4L668.7,129.5z M672.1,121.4l2.1-5l-4.2-1.7
			l-2.1,5L672.1,121.4z M684.8,139.2c-1.1,1.9-2.9,2.3-5.3,1.3c-0.6-0.2-1.6-0.7-3-1.4l0.4-3c1.2,0.6,2.3,1.1,3.3,1.5
			c1,0.4,1.9,0.1,2.5-0.9c0.7-1.3,2.8-6,6.1-14l-6.9-2.8c-1.5,1.4-3,2.6-4.6,3.5l-0.8-3.1c3-1.9,5.6-4.7,7.9-8.3l2.8,1.6
			c-0.9,1.4-1.9,2.7-2.9,3.9l8.7,3.6C688.7,130.9,686,137,684.8,139.2z M682.2,131.7l-3.1,0.7c-0.3-2.3-0.9-5-1.7-8l3.1-0.5
			C681.3,127,681.9,129.6,682.2,131.7z"/>
	</g>
</g>
<path class="st1" d="M375,635c-301.2,0-545.4,127.1-545.4,284S73.8,1203,375,1203s545.4-127.1,545.4-284S676.2,635,375,635z
	 M375,1198c-295.9,0-535.7-124.9-535.7-279S79.1,640,375,640s535.7,124.9,535.7,279S670.9,1198,375,1198z"/>
<path class="st1" d="M375,790c-336.2,0-608.8,127.1-608.8,284S38.8,1358,375,1358s608.8-127.1,608.8-284S711.2,790,375,790z
	 M375,1353c-330.3,0-598-124.9-598-279S44.7,795,375,795s598,124.9,598,279S705.3,1353,375,1353z"/>
<ellipse id="XMLID_1344_" transform="matrix(0.9997 -2.243597e-02 2.243597e-02 0.9997 -18.3143 11.3383)" class="st6" cx="496.1" cy="821.9" rx="6.3" ry="6.3"/>
<ellipse id="XMLID_1343_" transform="matrix(0.9997 -2.243592e-02 2.243592e-02 0.9997 -18.2654 9.992)" class="st6" cx="436.2" cy="819" rx="6.3" ry="6.3"/>
<ellipse id="XMLID_1342_" transform="matrix(0.9997 -2.243593e-02 2.243593e-02 0.9997 -17.9608 8.8442)" class="st6" cx="385.2" cy="804.9" rx="2.6" ry="2.6"/>
<ellipse id="XMLID_1341_" transform="matrix(0.9997 -2.243581e-02 2.243581e-02 0.9997 -18.2588 6.612)" class="st6" cx="285.5" cy="817" rx="6.3" ry="6.3"/>
<ellipse id="XMLID_1340_" transform="matrix(0.9997 -2.243596e-02 2.243596e-02 0.9997 -18.2587 7.2026)" class="st6" cx="311.9" cy="817.3" rx="5.1" ry="5.1"/>
<ellipse id="XMLID_1329_" class="st6" cx="468.1" cy="816.7" rx="4" ry="4"/>
<ellipse id="XMLID_1328_" class="st6" cx="255.9" cy="819.6" rx="2.9" ry="2.9"/>
<g id="XMLID_652_">
	<circle id="XMLID_670_" class="st7" cx="564.1" cy="804.6" r="17.5"/>
	<circle id="XMLID_669_" class="st8" cx="562.3" cy="803.5" r="13.5"/>
	<circle id="XMLID_668_" class="st9" cx="559" cy="801.7" r="8"/>
	<path id="XMLID_667_" class="st10" d="M583.8,785.7h-1.2l-1.8-1.8v-1.2c0-0.4-0.3-0.7-0.7-0.7c-0.4,0-0.7,0.3-0.7,0.7v1.2l-1.8,1.8
		h-1.2c-0.4,0-0.7,0.3-0.7,0.7c0,0.4,0.3,0.7,0.7,0.7h1.2l1.8,1.8v1.2c0,0.4,0.3,0.7,0.7,0.7s0.7-0.3,0.7-0.7v-1.2l1.8-1.8h1.2
		c0.4,0,0.7-0.3,0.7-0.7C584.5,786,584.1,785.7,583.8,785.7z"/>
	<circle id="XMLID_666_" class="st10" cx="548.8" cy="786.4" r="0.7"/>
	<circle id="XMLID_665_" class="st10" cx="583" cy="797.3" r="0.7"/>
	<circle id="XMLID_664_" class="st10" cx="574.3" cy="784.2" r="0.7"/>
	<circle id="XMLID_663_" class="st10" cx="567.7" cy="791.5" r="0.7"/>
	<circle id="XMLID_662_" class="st10" cx="569.9" cy="815.5" r="0.7"/>
	<circle id="XMLID_661_" class="st10" cx="546.6" cy="822.1" r="0.7"/>
	<circle id="XMLID_660_" class="st10" cx="545.1" cy="814.1" r="0.7"/>
	<path id="XMLID_659_" class="st5" d="M568.1,799.1c-1.9,0-2.9-1.2-3.2-2.5c-0.2-0.8-1-1.2-1.8-0.8c-1.5,0.8-2.6,2.5-2.6,4.3
		c-0.1,2.8,2.2,5.2,5,5.3c2.8,0.1,5.2-2.3,5.2-5.1c0-0.1,0-0.1,0-0.1c0-0.8-0.8-1.3-1.5-1.1C568.8,799.1,568.5,799.1,568.1,799.1z"
		/>
	<path id="XMLID_658_" class="st5" d="M550.3,793.9c0.3,1.5,1.6,2.7,3.2,2.7c1.8,0,3.2-1.4,3.2-3.2c0-1.5-1.1-2.8-2.5-3.1
		C552.8,791.2,551.4,792.4,550.3,793.9z"/>
	<path id="XMLID_657_" class="st11" d="M576.8,798.2c-1.1,0.5-2.4,0.1-2.9-1"/>
	<path id="XMLID_656_" class="st11" d="M564.1,790c0,1.2-1,2.2-2.2,2.2"/>
	<path id="XMLID_655_" class="st11" d="M561.2,808.3c0,1.2-1,2.2-2.2,2.2"/>
	<path id="XMLID_654_" class="st11" d="M573.3,805c1.1,0.5,1.7,1.8,1.2,2.8"/>
	<path id="XMLID_653_" class="st11" d="M551.8,804.6c1.1,0.5,1.7,1.8,1.2,2.8"/>
</g>
<g id="XMLID_1219_">
	<path id="XMLID_1250_" class="st12" d="M190.9,772.5l-1.2,0.6l-2.7-0.9l-0.6-1.2c-0.2-0.4-0.7-0.6-1.1-0.3
		c-0.4,0.2-0.6,0.7-0.3,1.1l0.6,1.2l-0.9,2.7l-1.2,0.6c-0.4,0.2-0.6,0.7-0.3,1.1c0.2,0.4,0.7,0.6,1.1,0.3l1.2-0.6l2.7,0.9l0.6,1.2
		c0.2,0.4,0.7,0.6,1.1,0.3c0.4-0.2,0.6-0.7,0.3-1.1l-0.6-1.2l0.9-2.7l1.2-0.6c0.4-0.2,0.6-0.7,0.3-1.1
		C191.8,772.5,191.3,772.3,190.9,772.5z"/>
	<ellipse id="XMLID_1249_" class="st13" cx="195.8" cy="807.3" rx="7.9" ry="7.9"/>
	<path id="XMLID_1248_" class="st14" d="M177.1,778.7l16.7,13.5c2.4,2,4.9,3.8,7.5,5.3c4.6,2.6,6.9,8.2,5.2,13.3l0,0
		c-1.7,5.2-6.8,8.3-12,7.8c-3.2-0.3-6.4-0.3-9.7-0.2l-20.9,1"/>
	<line id="XMLID_1247_" class="st15" x1="188.1" y1="796.5" x2="183.2" y2="794.3"/>
	<line id="XMLID_1246_" class="st15" x1="182.8" y1="789.8" x2="177.1" y2="786.1"/>
	<line id="XMLID_1245_" class="st15" x1="176.8" y1="794.8" x2="172" y2="792.6"/>
	<line id="XMLID_1244_" class="st15" x1="174.7" y1="805.3" x2="169.5" y2="804.2"/>
	<line id="XMLID_1243_" class="st15" x1="169.9" y1="810.6" x2="165.1" y2="810.3"/>
	<line id="XMLID_1242_" class="st15" x1="183" y1="810.5" x2="177.7" y2="809.4"/>
	<line id="XMLID_1241_" class="st14" x1="184.8" y1="802.9" x2="172.4" y2="799"/>
	<circle id="XMLID_1240_" class="st16" cx="161.9" cy="793.1" r="0.8"/>
	<circle id="XMLID_1239_" class="st16" cx="173.4" cy="788.1" r="0.8"/>
	<circle id="XMLID_1238_" class="st16" cx="187.7" cy="792" r="0.8"/>
	<circle id="XMLID_1237_" class="st16" cx="180.3" cy="797.7" r="0.8"/>
	<g id="XMLID_1226_">
		<circle id="XMLID_1236_" class="st12" cx="199.9" cy="806.6" r="0.8"/>
		<circle id="XMLID_1235_" class="st12" cx="202.2" cy="807.3" r="0.8"/>
		<circle id="XMLID_1234_" class="st12" cx="199.2" cy="808.8" r="0.8"/>
		<circle id="XMLID_1233_" class="st12" cx="201.4" cy="809.5" r="0.8"/>
		<circle id="XMLID_1232_" class="st12" cx="196.2" cy="810.4" r="0.8"/>
		<circle id="XMLID_1231_" class="st12" cx="198.4" cy="811.1" r="0.8"/>
		<circle id="XMLID_1230_" class="st12" cx="197.7" cy="813.3" r="0.8"/>
		<circle id="XMLID_1229_" class="st12" cx="200.7" cy="811.8" r="0.8"/>
		<circle id="XMLID_1228_" class="st12" cx="200.6" cy="804.3" r="0.8"/>
		<circle id="XMLID_1227_" class="st12" cx="197.3" cy="806.9" r="0.8"/>
	</g>
	<circle id="XMLID_1225_" class="st16" cx="165.7" cy="800.5" r="0.8"/>
	<circle id="XMLID_1224_" class="st16" cx="157.8" cy="805.5" r="0.8"/>
	<circle id="XMLID_1223_" class="st16" cx="165.6" cy="787.4" r="0.8"/>
	<circle id="XMLID_1222_" class="st16" cx="179.3" cy="804.9" r="0.8"/>
	<circle id="XMLID_1221_" class="st16" cx="175.2" cy="813.6" r="0.8"/>
	<circle id="XMLID_1220_" class="st16" cx="165.1" cy="815.9" r="0.8"/>
</g>
<g id="XMLID_214_">
	<polygon id="XMLID_244_" class="st17" points="381.2,792 391.5,802.3 391.5,772.4 381.2,772.4 	"/>
	<path id="XMLID_243_" class="st17" d="M386.4,763.1c-2.6,1.6-4.4,4.3-5,7.2h9.9C390.8,767.3,389,764.7,386.4,763.1z"/>
	<path id="XMLID_242_" class="st17" d="M355.4,763.1c-2.6,1.6-4.4,4.3-5,7.2h10C359.8,767.3,358,764.7,355.4,763.1z"/>
	<polygon id="XMLID_241_" class="st17" points="350.2,802.3 360.6,792 360.6,772.4 350.2,772.4 	"/>
	<path id="XMLID_240_" class="st18" d="M381.4,770.3c-0.1,0.6-0.2,1.2-0.2,1.9v0.2h10.3v-0.2c0-0.6-0.1-1.2-0.2-1.9H381.4z"/>
	<path id="XMLID_239_" class="st18" d="M350.4,770.3c-0.1,0.6-0.2,1.2-0.2,1.9v0.2h10.3v-0.2c0-0.6-0.1-1.2-0.2-1.9H350.4z"/>
	<line id="XMLID_238_" class="st19" x1="391.5" y1="773.4" x2="397.7" y2="773.4"/>
	<line id="XMLID_237_" class="st19" x1="391.5" y1="793" x2="397.7" y2="793"/>
	<path id="XMLID_236_" class="st20" d="M378.1,806.4l-2.1-5.2v-14.4l5.2,5.2v-17.9c0-7.3-3.8-14.1-9.9-18c-0.2-0.2-0.6-0.2-0.8,0
		c-6.1,3.9-9.9,10.7-9.9,18V792l5.2-5.2v14.4l-2.1,5.2v1.1v2v0H378v0L378.1,806.4L378.1,806.4z"/>
	<path id="XMLID_235_" class="st21" d="M392.5,815.7h-12.4c-0.3,0-0.5-0.4-0.3-0.6l1.4-5.5h10.4l1.4,5.5
		C393.1,815.3,392.9,815.7,392.5,815.7z"/>
	<path id="XMLID_234_" class="st21" d="M361.6,815.7h-12.4c-0.3,0-0.5-0.4-0.3-0.6l1.4-5.5h10.3l1.4,5.5
		C362.1,815.3,361.9,815.7,361.6,815.7z"/>
	<path id="XMLID_233_" class="st17" d="M376,801.3v-26.8c0-3.2-1.2-6.3-3.5-8.6c-0.9-0.9-2.3-0.9-3.2,0c-2.3,2.3-3.5,5.4-3.5,8.6
		v26.8l-2.1,5.2v3.1h14.4v-3.1L376,801.3z"/>
	<polygon id="XMLID_232_" class="st18" points="378.1,809.5 396.7,809.5 396.7,807.5 376,786.8 376,801.3 378.1,806.4 378.1,809.5 	
		"/>
	<polygon id="XMLID_231_" class="st18" points="363.6,809.5 363.6,807.5 363.6,806.4 365.7,801.3 365.7,786.8 345.1,807.5 
		345.1,809.5 363.6,809.5 	"/>
	<rect id="XMLID_230_" x="397.7" y="763.1" class="st19" width="7.2" height="52.6"/>
	<line id="XMLID_229_" class="st19" x1="404.9" y1="771.4" x2="397.7" y2="778.6"/>
	<line id="XMLID_228_" class="st19" x1="397.7" y1="778.6" x2="404.9" y2="785.8"/>
	<line id="XMLID_227_" class="st19" x1="404.9" y1="785.8" x2="397.7" y2="793"/>
	<line id="XMLID_226_" class="st19" x1="397.7" y1="793" x2="404.9" y2="800.2"/>
	<line id="XMLID_225_" class="st19" x1="404.9" y1="799.2" x2="397.7" y2="806.4"/>
	<line id="XMLID_224_" class="st19" x1="397.7" y1="806.4" x2="404.9" y2="813.7"/>
	<line id="XMLID_223_" class="st19" x1="404.9" y1="771.4" x2="397.7" y2="764.1"/>
	<rect id="XMLID_222_" x="398.8" y="756.9" class="st19" width="5.2" height="6.2"/>
	<polygon id="XMLID_221_" class="st22" points="347.1,805.4 345.1,807.5 345.1,809.5 363.6,809.5 363.6,809.5 363.6,807.5 
		363.6,806.4 364,805.4 	"/>
	<polygon id="XMLID_220_" class="st22" points="378.1,806.4 378.1,809.5 378.1,809.5 396.7,809.5 396.7,807.5 394.6,805.4 
		377.7,805.4 	"/>
	<path id="XMLID_219_" class="st21" d="M372.9,775.5h-4.1v-2c0-1.1,0.9-2.1,2.1-2.1l0,0c1.1,0,2.1,0.9,2.1,2.1L372.9,775.5
		L372.9,775.5z"/>
	<line id="XMLID_218_" class="st23" x1="368.8" y1="799.2" x2="368.8" y2="802.3"/>
	<line id="XMLID_217_" class="st23" x1="372.9" y1="799.2" x2="372.9" y2="802.3"/>
	<polygon id="XMLID_216_" class="st21" points="376,812.6 365.7,812.6 366.7,809.5 375,809.5 	"/>
	<line id="XMLID_215_" class="st23" x1="370.9" y1="809.5" x2="370.9" y2="805.3"/>
</g>
<path id="XMLID_859_" class="st10" d="M425.6,15.6l-2-0.6l-2.1-3.9l0.6-2c0.2-0.7-0.2-1.4-0.9-1.6c-0.7-0.2-1.4,0.2-1.6,0.9l-0.6,2
	l-3.9,2.1l-2-0.6c-0.7-0.2-1.4,0.2-1.6,0.9c-0.2,0.7,0.2,1.4,0.9,1.6l2,0.6l2.1,3.9l-0.6,2c-0.2,0.7,0.2,1.4,0.9,1.6
	c0.7,0.2,1.4-0.2,1.6-0.9l0.6-2l3.9-2.1l2,0.6c0.7,0.2,1.4-0.2,1.6-0.9S426.4,15.8,425.6,15.6z"/>
<circle id="XMLID_858_" class="st10" cx="363.4" cy="3.3" r="1.3"/>
<circle id="XMLID_857_" class="st10" cx="385.9" cy="13.1" r="1.3"/>
<circle id="XMLID_856_" class="st10" cx="418.7" cy="29.7" r="1.3"/>
<circle id="XMLID_855_" class="st10" cx="402.1" cy="8.5" r="1.3"/>
<circle id="XMLID_854_" class="st10" cx="385.9" cy="57.7" r="1.3"/>
<circle id="XMLID_853_" class="st10" cx="342.9" cy="56.9" r="1.3"/>
<circle id="XMLID_852_" class="st10" cx="344.5" cy="42.5" r="1.3"/>
<circle id="XMLID_848_" class="st10" cx="393.7" cy="72.2" r="1.3"/>
<circle id="XMLID_847_" class="st10" cx="409.3" cy="60.8" r="1.3"/>
<circle id="XMLID_846_" class="st10" cx="323.1" cy="21.2" r="1.3"/>
<circle id="XMLID_845_" class="st10" cx="337.5" cy="14.8" r="1.3"/>
<path id="XMLID_150_" class="st10" d="M564,30.3l-2-0.6l-2-3.9l0.6-2c0.2-0.7-0.2-1.4-0.8-1.6c-0.7-0.2-1.4,0.2-1.6,0.8l-0.6,2
	l-3.9,2l-2-0.6c-0.7-0.2-1.4,0.2-1.6,0.8c-0.2,0.7,0.2,1.4,0.8,1.6l2,0.6l2,3.9l-0.6,2c-0.2,0.7,0.2,1.4,0.8,1.6
	c0.7,0.2,1.4-0.2,1.6-0.8l0.6-2l3.9-2l2,0.6c0.7,0.2,1.4-0.2,1.6-0.8C565,31.3,564.7,30.6,564,30.3z"/>
<circle id="XMLID_149_" class="st10" cx="502" cy="15.9" r="1.3"/>
<circle id="XMLID_68_" class="st10" cx="524.2" cy="27.1" r="1.3"/>
<circle id="XMLID_67_" class="st10" cx="556.7" cy="44.4" r="1.3"/>
<circle id="XMLID_66_" class="st10" cx="540.5" cy="22.8" r="1.3"/>
<circle id="XMLID_65_" class="st10" cx="502.2" cy="36.6" r="1.3"/>
<circle id="XMLID_64_" class="st10" cx="480.5" cy="70.2" r="1.3"/>
<circle id="XMLID_63_" class="st10" cx="527.5" cy="46.1" r="3"/>
<circle id="XMLID_195_" class="st10" cx="545.4" cy="71.9" r="1"/>
<circle id="XMLID_62_" class="st10" cx="531" cy="86.4" r="1.3"/>
<circle id="XMLID_45_" class="st10" cx="550.1" cy="58.4" r="1.3"/>
<circle id="XMLID_44_" class="st10" cx="497.8" cy="7.8" r="1.3"/>
<circle id="XMLID_43_" class="st10" cx="512.2" cy="9.6" r="1.3"/>
<g id="XMLID_1800_">
	<path id="XMLID_1840_" class="st24" d="M469.6,756.1h2.9l0.8,0.8c0.2,0.2,0.6,0.2,0.9,0c0.2-0.3,0.2-0.6,0-0.9l-0.8-0.8v-2.9
		c0-0.3-0.3-0.6-0.6-0.6c-0.3,0-0.6,0.3-0.6,0.6v2.5h-2.5c-0.3,0-0.6,0.3-0.6,0.6C469,755.8,469.3,756.1,469.6,756.1z"/>
	<polygon id="XMLID_1839_" class="st12" points="472.4,752.7 472.4,752.7 465.9,746.3 465.9,746.3 465,747.2 471.5,753.6 	"/>
	<polygon id="XMLID_1838_" class="st12" points="473.2,751.9 473.2,751.9 474.1,751 474.1,751 467.6,744.6 467.6,744.6 466.7,745.4 
		466.7,745.4 	"/>
	<polygon id="XMLID_1837_" class="st12" points="469.8,755.3 469.8,755.3 470.6,754.4 464.2,748 463.3,748.9 463.3,748.9 	"/>
	<polygon id="XMLID_1836_" class="st12" points="475,750.2 475,750.2 476.2,748.9 469.8,742.4 468.5,743.7 468.5,743.7 	"/>
	<polygon id="XMLID_1835_" class="st12" points="460.8,751.4 460.8,751.4 459.5,752.7 465.9,759.2 467.2,757.9 467.2,757.9 	"/>
	<polygon id="XMLID_1834_" class="st12" points="468,757 468,757 468.9,756.2 468.9,756.2 462.5,749.7 462.5,749.7 461.6,750.6 
		461.6,750.6 	"/>
	<polygon id="XMLID_1833_" class="st25" points="474.1,751 474.1,751 475,750.2 475,750.2 468.5,743.7 468.5,743.7 467.6,744.6 
		467.6,744.6 	"/>
	<polygon id="XMLID_1832_" class="st25" points="472.4,752.7 472.4,752.7 473.2,751.9 473.2,751.9 466.7,745.4 466.7,745.4 
		465.9,746.3 465.9,746.3 	"/>
	
		<rect id="XMLID_1831_" x="467.2" y="746.2" transform="matrix(0.7071 -0.7071 0.7071 0.7071 -393.8527 550.7074)" class="st25" width="1.2" height="9.1"/>
	<polygon id="XMLID_1830_" class="st25" points="468.9,756.2 468.9,756.2 469.8,755.3 469.8,755.3 463.3,748.9 463.3,748.9 
		462.5,749.7 462.5,749.7 	"/>
	<polygon id="XMLID_1829_" class="st25" points="460.8,751.4 467.2,757.9 467.2,757.9 468,757 468,757 461.6,750.6 461.6,750.6 	"/>
	<path id="XMLID_1828_" class="st24" d="M482.9,762.3H480l-0.8-0.8c-0.2-0.2-0.6-0.2-0.9,0c-0.3,0.3-0.2,0.6,0,0.9l0.8,0.8v2.8
		c0,0.3,0.3,0.6,0.6,0.6c0.4,0,0.6-0.3,0.6-0.6v-2.5h2.5c0.3,0,0.6-0.3,0.6-0.6C483.5,762.6,483.2,762.3,482.9,762.3z"/>
	<polygon id="XMLID_1827_" class="st3" points="470.7,773.3 462.1,764.6 465.6,762.9 472.5,769.8 	"/>
	<path id="XMLID_1824_" class="st26" d="M491.9,743.6c-0.9-0.9-2.5-0.9-3.4,0c-0.8,0.8-0.9,2-0.4,3l-0.9,0.9c-0.2,0.2-0.2,0.6,0,0.9
		c0.1,0.1,0.3,0.2,0.4,0.2c0.2,0,0.3-0.1,0.4-0.2l0.9-0.9c0.4,0.2,0.8,0.4,1.2,0.4c0.6,0,1.2-0.3,1.7-0.7c0.5-0.5,0.7-1.1,0.7-1.7
		C492.6,744.7,492.3,744.1,491.9,743.6z M491,746.2c-0.5,0.5-1.2,0.5-1.7,0c-0.5-0.5-0.5-1.2,0-1.7c0.2-0.2,0.5-0.4,0.9-0.4
		c0.4,0,0.6,0.1,0.9,0.4c0.2,0.2,0.4,0.5,0.4,0.9C491.3,745.6,491.2,746,491,746.2z"/>
	<polygon id="XMLID_1823_" class="st12" points="480.2,765.7 480.2,765.7 486.6,772.1 486.6,772.1 487.4,771.2 481,764.8 	"/>
	<polygon id="XMLID_1822_" class="st12" points="479.3,766.5 479.3,766.5 478.4,767.4 478.4,767.4 484.9,773.8 484.9,773.8 
		485.7,772.9 485.7,772.9 	"/>
	<polygon id="XMLID_1821_" class="st12" points="482.7,763.1 482.7,763.1 481.9,764 488.3,770.4 489.2,769.5 489.2,769.5 	"/>
	<polygon id="XMLID_1820_" class="st12" points="477.6,768.2 477.6,768.2 476.3,769.5 482.7,776 484,774.7 484,774.7 	"/>
	<polygon id="XMLID_1819_" class="st12" points="491.8,767 491.8,767 493,765.7 486.6,759.2 485.3,760.5 485.3,760.5 	"/>
	<polygon id="XMLID_1818_" class="st12" points="484.4,761.4 484.4,761.4 483.5,762.2 483.5,762.2 490,768.7 490,768.7 490.9,767.8 
		490.9,767.8 	"/>
	<polygon id="XMLID_1817_" class="st25" points="478.4,767.4 478.4,767.4 477.6,768.2 477.6,768.2 484,774.7 484,774.7 484.9,773.8 
		484.9,773.8 	"/>
	<polygon id="XMLID_1816_" class="st25" points="480.2,765.7 480.2,765.7 479.3,766.5 479.3,766.5 485.7,772.9 485.7,772.9 
		486.6,772.1 486.6,772.1 	"/>
	
		<rect id="XMLID_1815_" x="484.1" y="763.1" transform="matrix(0.7071 -0.7071 0.7071 0.7071 -400.8274 567.5307)" class="st25" width="1.2" height="9.1"/>
	<polygon id="XMLID_1814_" class="st25" points="483.5,762.2 483.5,762.2 482.7,763.1 482.7,763.1 489.2,769.5 489.2,769.5 
		490,768.7 490,768.7 	"/>
	<polygon id="XMLID_1813_" class="st25" points="491.8,767 485.3,760.5 485.3,760.5 484.4,761.4 484.4,761.4 490.9,767.8 
		490.9,767.8 	"/>
	<path id="XMLID_1812_" class="st27" d="M484.1,756.5L471.6,769l-5.1-5.1l12.5-12.5c1.4-1.4,3.7-1.4,5.1,0l0,0
		C485.5,752.8,485.5,755.1,484.1,756.5z"/>
	<path id="XMLID_1811_" class="st3" d="M484.1,744.5c-1.9,1.9-1.9,5,0,6.9c1.9,1.9,5,1.9,6.9,0L484.1,744.5z"/>
	<g id="XMLID_1802_">
		<circle id="XMLID_1810_" class="st28" cx="464.6" cy="776.3" r="0.6"/>
		<circle id="XMLID_1809_" class="st28" cx="460.3" cy="774.5" r="0.6"/>
		<circle id="XMLID_1808_" class="st28" cx="461.5" cy="773.3" r="0.6"/>
		<circle id="XMLID_1807_" class="st28" cx="462.7" cy="772" r="0.6"/>
		<circle id="XMLID_1806_" class="st28" cx="464" cy="770.8" r="0.6"/>
		<path id="XMLID_1805_" class="st28" d="M466,771.4c-0.3-0.1-0.7,0.1-0.7,0.4l-0.6,2.4c-0.1,0.3,0.1,0.7,0.4,0.7c0.1,0,0.1,0,0.2,0
			c0.3,0,0.5-0.2,0.6-0.5l0.6-2.4C466.5,771.9,466.3,771.5,466,771.4z"/>
		<circle id="XMLID_1804_" class="st28" cx="458.5" cy="770.2" r="0.6"/>
		<path id="XMLID_1803_" class="st28" d="M460.3,770.2c0.1,0,0.1,0,0.2,0l2.4-0.6c0.3-0.1,0.5-0.4,0.4-0.7c-0.1-0.3-0.4-0.5-0.7-0.4
			l-2.4,0.6c-0.3,0.1-0.5,0.4-0.4,0.7C459.8,770,460,770.2,460.3,770.2z"/>
	</g>
	
		<rect id="XMLID_1801_" x="468.1" y="763.4" transform="matrix(0.7071 -0.7071 0.7071 0.7071 -402.1814 557.0825)" class="st24" width="6.6" height="1.2"/>
</g>
<g id="XMLID_1193_" class="st29">
	<circle id="XMLID_1218_" class="st3" cx="294.7" cy="760.9" r="36.1"/>
	<g id="XMLID_1212_">
		<circle id="XMLID_1217_" class="st12" cx="271.8" cy="789.7" r="1.2"/>
		<circle id="XMLID_1216_" class="st12" cx="265.8" cy="756.1" r="1.2"/>
		<circle id="XMLID_1215_" class="st12" cx="289.9" cy="754.9" r="1.2"/>
		<circle id="XMLID_1214_" class="st12" cx="316.3" cy="732" r="1.2"/>
		<circle id="XMLID_1213_" class="st12" cx="322.3" cy="756.1" r="1.2"/>
	</g>
	<circle id="XMLID_1211_" class="st26" cx="322.3" cy="775.3" r="4.8"/>
	<circle id="XMLID_1210_" class="st26" cx="307" cy="790.9" r="4.8"/>
	
		<ellipse id="XMLID_1209_" transform="matrix(0.1602 -0.9871 0.9871 0.1602 -519.28 933.0594)" class="st26" cx="288.7" cy="771.7" rx="4.8" ry="4.8"/>
	<circle id="XMLID_1208_" class="st26" cx="303.6" cy="756.1" r="6"/>
	<line id="XMLID_1207_" class="st30" x1="299.8" y1="760.7" x2="292.1" y2="768.4"/>
	<line id="XMLID_1206_" class="st30" x1="318.8" y1="772.1" x2="307.4" y2="760.7"/>
	<line id="XMLID_1205_" class="st30" x1="310.4" y1="787.6" x2="319.1" y2="778.8"/>
	<polyline id="XMLID_1204_" class="st30" points="291.6,775.5 303.6,787.6 303.6,787.6 	"/>
	<circle id="XMLID_1203_" class="st26" cx="288.7" cy="736.8" r="3.6"/>
	<circle id="XMLID_1202_" class="st26" cx="265.8" cy="732" r="3.6"/>
	<line id="XMLID_1201_" class="st30" x1="303.1" y1="752.5" x2="291.1" y2="739.2"/>
	<line id="XMLID_1200_" class="st30" x1="285.1" y1="735.6" x2="269.4" y2="732"/>
	<circle id="XMLID_1199_" class="st12" cx="288.7" cy="771.7" r="3.1"/>
	<circle id="XMLID_1198_" class="st12" cx="307" cy="790.9" r="3.1"/>
	<circle id="XMLID_1197_" class="st12" cx="322.3" cy="775.3" r="2.2"/>
	<circle id="XMLID_1196_" class="st12" cx="303.6" cy="756.1" r="3.5"/>
	<circle id="XMLID_1195_" class="st12" cx="288.7" cy="736.8" r="1.2"/>
	<circle id="XMLID_1194_" class="st12" cx="265.8" cy="732" r="1.2"/>
</g>
<path class="st31" d="M377,143.8c-114.1,0-206.7,43.7-206.7,97.7s92.6,97.6,206.7,97.6s206.7-43.7,206.7-97.7S491.1,143.8,377,143.8
	z M377,337.4c-112.1,0-202.9-42.9-202.9-95.9s90.9-95.9,202.9-95.9s202.9,42.9,202.9,95.9S489.1,337.4,377,337.4z"/>
<ellipse id="XMLID_194_" class="st2" cx="377.8" cy="292.8" rx="154.8" ry="154.8"/>
<path class="st32" d="M377,90.1c-177.6,0-321.6,69.1-321.6,154.3s144,154.2,321.6,154.2s321.6-69.1,321.6-154.3S554.6,90.1,377,90.1
	z M377,395.4c-173.8,0-314.7-67.6-314.7-151s140.9-151,314.7-151s314.7,67.6,314.7,151S550.8,395.4,377,395.4z"/>
<ellipse id="XMLID_193_" transform="matrix(0.9997 -2.243603e-02 2.243603e-02 0.9997 -4.1113 9.8554)" class="st6" cx="437.2" cy="188.2" rx="6.7" ry="6.7"/>
<ellipse id="XMLID_192_" transform="matrix(0.9997 -2.243598e-02 2.243598e-02 0.9997 -3.1944 7.9236)" class="st6" cx="351.5" cy="146.3" rx="6.7" ry="6.7"/>
<ellipse id="XMLID_191_" transform="matrix(0.9997 -2.243586e-02 2.243586e-02 0.9997 -4.1198 9.1007)" class="st6" cx="403.5" cy="188.2" rx="2.8" ry="2.8"/>
<ellipse id="XMLID_190_" transform="matrix(0.9997 -2.243577e-02 2.243577e-02 0.9997 -4.0556 8.2447)" class="st6" cx="365.4" cy="184.9" rx="6.7" ry="6.7"/>
<ellipse id="XMLID_189_" transform="matrix(0.9997 -2.243597e-02 2.243597e-02 0.9997 -3.4992 8.5672)" class="st6" cx="380.1" cy="160.2" rx="5.4" ry="5.4"/>
<ellipse id="XMLID_1337_" class="st10" cx="124.1" cy="85.6" rx="5.9" ry="5.7"/>
<ellipse id="XMLID_1336_" class="st10" cx="45.9" cy="149.5" rx="5.1" ry="4.9"/>
<ellipse id="XMLID_1335_" class="st10" cx="18.2" cy="138.1" rx="4.3" ry="5.7"/>
<ellipse id="XMLID_188_" class="st6" cx="437.4" cy="165.3" rx="4.1" ry="4.5"/>
<ellipse id="XMLID_187_" class="st6" cx="322.3" cy="164.9" rx="3" ry="3"/>
<g id="XMLID_1637_">
	<circle id="XMLID_1646_" class="st33" cx="325.2" cy="117.9" r="16.8"/>
	<g id="XMLID_1644_">
		<path id="XMLID_1645_" class="st34" d="M325.2,101c-2.3,0-4.5,0.5-6.6,1.3c-0.1,0.5-0.5,1.5-0.5,1.8c0.1,0,4.3-4.3,3.7-1.4
			c-0.3,1.9-3.8,1.9-3.6,3.7c3.6,1.4,4.9-2.7,7.9-2.7c1,0,3.7-1.6,4.1-1.3c2,1.3-0.4,6.1-2,4.5c-1.5-1.5-3.6,0.5-3.5,2.8
			c0.8,0,1.1-2.2,1.8-1.4c0.8,0.8,0.5,2.5-0.6,2.9c-1.1,0.4-5.3-2.8-4.2-0.4c1.1,2.7-3.4,4.8,1.2,3.7c2.1-0.5,1.4,1.1,2.5,1.9
			c1.2,0.9,0.7-1.3,1.6-0.9c1.3,0.5-0.2,1.8,1.8,0.8c2.4-1.1,1.5,0.6,2.2,1.7c1.3,2,4.7,4,6.4,1.3c0.4-0.6,0.1-5.7,2.7-2.3
			c1.6,2.1,1.1-2.5,1.3-3.7C339.4,106.3,332.9,101,325.2,101z"/>
	</g>
	<path id="XMLID_1643_" class="st35" d="M327.5,125.4l-3.1-2.3l-2.1,0.1l-2.1-0.7l-1.7-1.2l-3.8,0.9l-1.6,0.8l-1.8,2.4l0.6,2.8
		c0.2,0.2,0.4,0.4,0.5,0.7l3.2,1.5l2.2,0.3l1.3,2.7l0,0.3c1.9,0.7,3.8,1.1,6,1.1c1.4,0,2.9-0.2,4.2-0.5l0.4-2.6l2-1.6l0.8-2.6
		l-4.2,0L327.5,125.4z"/>
	<path id="XMLID_1642_" class="st36" d="M308.7,120.5C308.7,120.5,308.8,120.5,308.7,120.5c0.8-0.8,1.5-0.9,2.1-2
		c0.6-1.1-0.1-1.1,0-3c0.1-1.9-0.1-1,0-3c0-0.7,0-1.1-0.9-1.4c-0.9,2.1-1.4,4.4-1.4,6.7C308.4,118.7,308.5,119.6,308.7,120.5z"/>
	<path id="XMLID_1641_" class="st35" d="M325.8,131.7c-0.6,0-2.9-0.8-3.5-1.7c-0.5-1-1.7-2.6-1.7-2.3c0,0.2-5.3-1.6-8.9-2.9
		l-0.4,0.5l0.6,2.8c0.2,0.2,0.4,0.4,0.5,0.7l3.2,1.5l2.2,0.3l1.3,2.7l0,0.3c1.9,0.7,3.8,1.1,6,1.1c1.4,0,2.9-0.2,4.2-0.5l0.3-2
		c-0.3-0.1-0.6-0.2-1.1-0.4C327.1,131.1,326.4,131.8,325.8,131.7z"/>
	<path id="XMLID_1640_" class="st36" d="M331.8,129.8l0.8-2.6l-4.2,0l-1-1.8l-3.1-2.3l-2.1,0.1l-2.1-0.7l-1.7-1.2l-3.8,0.9l-1.6,0.8
		l-1.3,1.9c3.6,1.3,8.8,3,8.9,2.9c0-0.3,1.2,1.3,1.7,2.3c0.5,1,2.9,1.7,3.5,1.7c0.6,0,1.3-0.6,2.9,0c0.4,0.2,0.7,0.3,1.1,0.4
		l0.1-0.6L331.8,129.8z"/>
	<path id="XMLID_1639_" class="st36" d="M331.6,102.3c-0.1,2.1-0.2,3.7-0.2,3.7l-3.2,3.2c0,0,3,4.4,3.2,4.9c0.2,0.5,2.7,1.1,3.2,0.8
		c0.5-0.3,2.4-1.9,3.2-0.8c0.6,0.8,0.5,1.4,0.8,1.9c0.2,0,0.5,0.2,0.9,0.5c0.5,0.2,1.1,0.3,1.7,0.4c0.2-1.1,0-2.9,0.2-3.6
		C340,108.3,336.3,104.2,331.6,102.3z"/>
	<path id="XMLID_1638_" class="st35" d="M333.5,103.2c-0.1,2-0.2,3.6-0.2,3.6l-2.3,2.3c0,0,2.2,3.1,2.3,3.5c0.1,0.4,2,0.8,2.3,0.6
		c0.4-0.2,1.7-1.4,2.3-0.6c0.6,0.8,0.2,1.4,1.2,1.7c0.8,0.2,1.9,0.5,2.2,0.5c0-0.6,0-1.2,0.1-1.6C340.2,109,337.3,105.4,333.5,103.2
		z"/>
</g>
<g id="XMLID_170_">
	<circle id="XMLID_186_" class="st37" cx="238.2" cy="148.8" r="25.7"/>
	<path id="XMLID_185_" class="st10" d="M268.1,122h-1.7l-2.6-2.6v-1.7c0-0.6-0.5-1.1-1.1-1.1c-0.6,0-1.1,0.5-1.1,1.1v1.7l-2.6,2.6
		h-1.7c-0.6,0-1.1,0.5-1.1,1.1c0,0.6,0.5,1.1,1.1,1.1h1.7l2.6,2.6v1.7c0,0.6,0.5,1.1,1.1,1.1c0.6,0,1.1-0.5,1.1-1.1v-1.7l2.6-2.6
		h1.7c0.6,0,1.1-0.5,1.1-1.1C269.2,122.5,268.8,122,268.1,122z"/>
	<circle id="XMLID_184_" class="st10" cx="215.7" cy="126.3" r="1.1"/>
	<circle id="XMLID_183_" class="st10" cx="236.1" cy="129.5" r="1.1"/>
	<circle id="XMLID_182_" class="st10" cx="266" cy="134.8" r="1.1"/>
	<circle id="XMLID_181_" class="st10" cx="247.8" cy="122" r="1.1"/>
	<circle id="XMLID_180_" class="st10" cx="246.7" cy="164.8" r="1.1"/>
	<circle id="XMLID_179_" class="st10" cx="212.5" cy="174.4" r="1.1"/>
	<circle id="XMLID_178_" class="st10" cx="210.3" cy="162.6" r="1.1"/>
	<path id="XMLID_177_" class="st6" d="M261.7,138.4c-1-2.3-2.3-4.3-3.8-6.2c-7.4,1.2-22.9,3.7-22.9,3.7L261.7,138.4z"/>
	<path id="XMLID_176_" class="st6" d="M260.9,160.8c1.1-1.9,1.9-4.1,2.4-6.3l-34.6,3.8C228.5,158.4,248.9,159.9,260.9,160.8z"/>
	<path id="XMLID_175_" class="st6" d="M212.9,144.3c-0.3,1.4-0.4,2.9-0.4,4.4c0,0.6,0.1,1.2,0.1,1.8l22.4-2.8
		C235,147.7,221.4,145.6,212.9,144.3z"/>
	<circle id="XMLID_174_" class="st10" cx="256.4" cy="174.4" r="1.1"/>
	<circle id="XMLID_173_" class="st10" cx="266" cy="161.6" r="1.1"/>
	<circle id="XMLID_172_" class="st10" cx="210.3" cy="121" r="1.1"/>
	<circle id="XMLID_171_" class="st10" cx="222.1" cy="118.8" r="1.1"/>
</g>
<circle id="XMLID_679_" class="st10" cx="14.4" cy="92.6" r="0.9"/>
<path id="XMLID_674_" class="st38" d="M-11.3,24.1L-11.3,24.1C-11.3,24.1-11.3,24.1-11.3,24.1z"/>
<path id="XMLID_672_" class="st38" d="M95.8,67.6c-1.3-1.3-8.2,3.2-17.4,11.1c0.6,0.4,1.1,0.8,1.7,1.3c6.2-5.2,10.6-8.3,12.8-9.5
	c-2.1,3.9-10,14.3-24.7,29S43.2,121.9,39.2,124c1.3-2.5,4.9-7.4,10.9-14.4c-0.5-0.5-0.9-1.1-1.2-1.7c-8.7,9.9-13.9,17.5-12.4,18.9
	c2,2,17-9.6,33.4-25.9C86.1,84.5,97.8,69.6,95.8,67.6z"/>
<g id="XMLID_151_">
	<circle id="XMLID_169_" class="st7" cx="467.7" cy="122.4" r="21.3"/>
	<circle id="XMLID_168_" class="st8" cx="465.5" cy="121.1" r="16.4"/>
	<circle id="XMLID_167_" class="st9" cx="461.5" cy="118.9" r="9.8"/>
	<path id="XMLID_166_" class="st10" d="M491.6,99.4h-1.4l-2.1-2.1v-1.4c0-0.5-0.4-0.9-0.9-0.9c-0.5,0-0.9,0.4-0.9,0.9v1.4l-2.1,2.1
		h-1.4c-0.5,0-0.9,0.4-0.9,0.9c0,0.5,0.4,0.9,0.9,0.9h1.4l2.1,2.1v1.4c0,0.5,0.4,0.9,0.9,0.9c0.5,0,0.9-0.4,0.9-0.9v-1.4l2.1-2.1
		h1.4c0.5,0,0.9-0.4,0.9-0.9C492.5,99.7,492.1,99.4,491.6,99.4z"/>
	<circle id="XMLID_165_" class="st10" cx="449.1" cy="100.3" r="0.9"/>
	<circle id="XMLID_164_" class="st10" cx="490.8" cy="113.6" r="0.9"/>
	<circle id="XMLID_163_" class="st10" cx="480.1" cy="97.6" r="0.9"/>
	<circle id="XMLID_162_" class="st10" cx="472.1" cy="106.5" r="0.9"/>
	<circle id="XMLID_161_" class="st10" cx="474.8" cy="135.7" r="0.9"/>
	<circle id="XMLID_160_" class="st10" cx="446.5" cy="143.7" r="0.9"/>
	<circle id="XMLID_159_" class="st10" cx="444.6" cy="133.9" r="0.9"/>
	<path id="XMLID_158_" class="st5" d="M472.6,115.8c-2.3,0-3.5-1.4-4-3.1c-0.3-0.9-1.3-1.4-2.1-1c-1.9,1-3.1,3-3.2,5.3
		c-0.1,3.4,2.7,6.3,6.1,6.4c3.5,0.1,6.3-2.8,6.3-6.2c0-0.1,0-0.1,0-0.1c0-0.9-0.9-1.6-1.9-1.4C473.4,115.7,473.1,115.8,472.6,115.8z
		"/>
	<path id="XMLID_157_" class="st5" d="M451,109.4c0.3,1.9,1.9,3.3,3.9,3.3c2.2,0,4-1.8,4-4c0-1.9-1.3-3.5-3.1-3.8
		C453.9,106.1,452.3,107.6,451,109.4z"/>
	<path id="XMLID_156_" class="st11" d="M483.2,114.6c-1.3,0.6-2.9,0.1-3.6-1.2"/>
	<path id="XMLID_155_" class="st11" d="M467.7,104.7c0,1.5-1.2,2.6-2.6,2.6"/>
	<path id="XMLID_154_" class="st11" d="M464.2,126.9c0,1.5-1.2,2.6-2.6,2.6"/>
	<path id="XMLID_153_" class="st11" d="M479,122.9c1.4,0.6,2,2.1,1.4,3.5"/>
	<path id="XMLID_152_" class="st11" d="M452.7,122.4c1.4,0.6,2,2.1,1.4,3.5"/>
</g>
<path id="XMLID_148_" class="st39" d="M448.9,54.1l-0.5-0.5l-0.1-1.5l0.5-0.5c0.2-0.2,0.1-0.5,0-0.6c-0.2-0.2-0.5-0.1-0.6,0
	l-0.5,0.5l-1.5,0.1l-0.5-0.5c-0.2-0.2-0.5-0.1-0.6,0c-0.2,0.2-0.1,0.5,0,0.6l0.5,0.5l0.1,1.5l-0.5,0.5c-0.2,0.2-0.1,0.5,0,0.6
	s0.5,0.1,0.6,0l0.5-0.5l1.5-0.1l0.5,0.5c0.2,0.2,0.5,0.1,0.6,0C449.1,54.5,449.1,54.2,448.9,54.1z"/>
<path id="XMLID_146_" class="st39" d="M422.4,13.7l-0.2-0.2l0-0.7l0.2-0.2c0.1-0.1,0.1-0.2,0-0.3s-0.2-0.1-0.3,0l-0.2,0.2l-0.7,0
	l-0.2-0.2c-0.1-0.1-0.2-0.1-0.3,0c-0.1,0.1-0.1,0.2,0,0.3l0.2,0.2l0,0.7l-0.2,0.2c-0.1,0.1-0.1,0.2,0,0.3c0.1,0.1,0.2,0.1,0.3,0
	l0.2-0.2l0.7,0l0.2,0.2c0.1,0.1,0.2,0.1,0.3,0C422.5,13.9,422.5,13.8,422.4,13.7z"/>
<g>
	<g id="XMLID_2032_">
		<g id="XMLID_2052_">
			<path id="XMLID_2055_" class="st40" d="M382,161l-5.3-1c-0.1,0-0.3,0-0.4,0c-0.1,0-0.3,0.1-0.4,0.1l-12.1,8.3l-1.7-0.3
				c-0.6-0.1-1.1,0.3-1.3,0.9c-0.1,0.6,0.3,1.1,0.9,1.3l5.3,1c0.6,0.1,1.1-0.3,1.3-0.9c0.1-0.6-0.3-1.1-0.9-1.3l-0.6-0.1l10-6.8
				l4.8,0.9c0.6,0.1,1.1-0.3,1.3-0.9C383,161.7,382.6,161.1,382,161z"/>
			<path id="XMLID_2054_" class="st40" d="M419,179l-1.7-0.3l-8.3-12.1c-0.1-0.1-0.2-0.2-0.3-0.3c-0.1-0.1-0.2-0.1-0.4-0.1l-5.3-1
				c-0.6-0.1-1.1,0.3-1.3,0.9c-0.1,0.6,0.3,1.1,0.9,1.3l4.8,0.9l6.8,10l-0.6-0.1c-0.6-0.1-1.1,0.3-1.3,0.9c-0.1,0.6,0.3,1.1,0.9,1.3
				l5.3,1c0.6,0.1,1.1-0.3,1.3-0.9C419.9,179.6,419.6,179.1,419,179z"/>
			<path id="XMLID_2053_" class="st40" d="M392.6,174l-1.1-0.2l1.4-7.4c0.1-0.6-0.3-1.1-0.9-1.3c-0.6-0.1-1.1,0.3-1.3,0.9l-1.4,7.4
				l-1.1-0.2c-0.6-0.1-1.1,0.3-1.3,0.9c-0.1,0.6,0.3,1.1,0.9,1.3l4.2,0.8c0.6,0.1,1.1-0.3,1.3-0.9
				C393.6,174.6,393.3,174.1,392.6,174z"/>
		</g>
		
			<rect id="XMLID_2051_" x="391.6" y="148.7" transform="matrix(0.1867 -0.9824 0.9824 0.1867 163.2343 515.9303)" class="st41" width="3.3" height="21.4"/>
		<path id="XMLID_2050_" class="st17" d="M401.9,113.5L401.9,113.5c-2.7-0.5-5.5,0-7.9,1.4l0,0c-5.5,3.3-9.4,8.9-10.6,15.2l-5.3,28
			l4.2,0.8l0.6-3.2l21.1,4l-0.6,3.2l4.2,0.8l5.3-27.9c1.2-6.3-0.3-12.9-4.3-18l0,0C407.1,115.5,404.7,114,401.9,113.5z"/>
		<g id="XMLID_2047_">
			<polygon id="XMLID_2049_" class="st42" points="413.5,133.2 384,127.6 383.6,129.7 403.6,133.5 402.6,138.8 404.7,139.2 
				405.7,133.9 413.1,135.3 			"/>
			
				<rect id="XMLID_2048_" x="396" y="153.2" transform="matrix(0.1867 -0.9824 0.9824 0.1867 174.4079 519.1815)" class="st42" width="9.7" height="2.1"/>
		</g>
		<circle id="XMLID_2042_" class="st43" cx="404.9" cy="155.6" r="1.1"/>
		<polygon id="XMLID_2041_" class="st40" points="378.8,155 373.8,152.9 374.2,150.8 379.6,150.8 		"/>
		<polygon id="XMLID_2040_" class="st40" points="409.1,156.4 414.1,158.4 413.7,160.5 408.3,160.6 		"/>
		<g id="XMLID_2035_">
			<circle id="XMLID_2039_" class="st40" cx="402.7" cy="144.2" r="5.4"/>
			<path id="XMLID_2036_" class="st42" d="M401.5,150.6c-3.5-0.7-5.8-4-5.1-7.5c0.7-3.5,4-5.8,7.5-5.1c3.5,0.7,5.8,4,5.1,7.5
				C408.3,148.9,404.9,151.2,401.5,150.6z M403.5,140c-2.3-0.4-4.6,1.1-5,3.4c-0.4,2.3,1.1,4.6,3.4,5c2.3,0.4,4.6-1.1,5-3.4
				C407.4,142.7,405.8,140.4,403.5,140z"/>
		</g>
		<polygon id="XMLID_2034_" class="st41" points="382.6,135 382.2,137.1 389.6,138.5 389.4,139.5 382,138.1 381.6,140.2 389,141.6 
			388.8,142.7 381.4,141.3 381,143.4 388.4,144.8 388.2,145.8 380.8,144.4 380.4,146.6 389.9,148.4 392.1,136.8 		"/>
		
			<rect id="XMLID_2033_" x="389.7" y="152.8" transform="matrix(0.1867 -0.9824 0.9824 0.1867 158.4964 518.5411)" class="st40" width="5.4" height="21.4"/>
	</g>
	<path id="XMLID_1487_" class="st18" d="M409.5,110.2c-0.1,0.1-0.3,0.2-0.4,0.2c-1.3-0.2-2.5,0.6-2.8,1.9c0,0.2-0.3,0.4-0.5,0.4
		s-0.4-0.3-0.4-0.5c0.3-1.6,1.8-2.8,3.4-2.7c-1.4-1.4-3.1-2.4-5.2-2.9l-0.4,2.2c0,0.2-0.3,0.4-0.5,0.4s-0.4-0.3-0.4-0.5l0.4-2.2
		c-2.1-0.3-4.1,0-5.9,0.8c1.5,0.5,2.5,2.1,2.2,3.7c0,0.2-0.3,0.4-0.5,0.4c-0.2,0-0.4-0.3-0.4-0.5c0.2-1.3-0.6-2.5-1.9-2.8
		c-0.2,0-0.3-0.2-0.3-0.3c-2.7,1.5-4.7,4.1-5.3,7.4l-1.5,7.8c2.1,3.1,5.7,5.4,10,6.2c4.1,0.8,8.1,0,11.1-1.8l1.6-8.2
		C412.3,115.7,411.4,112.6,409.5,110.2z"/>
	<path id="XMLID_1486_" class="st17" d="M405.3,112c0,0.2,0.1,0.5,0.4,0.5s0.5-0.1,0.5-0.4c0.2-1.3,1.5-2.1,2.8-1.9
		c0.2,0,0.3,0,0.4-0.2c-0.2-0.3-0.5-0.6-0.7-0.8C407.1,109.3,405.7,110.4,405.3,112z"/>
	<path id="XMLID_1485_" class="st17" d="M396.1,107.9c1.3,0.2,2.1,1.5,1.9,2.8c0,0.2,0.1,0.5,0.4,0.5s0.5-0.1,0.5-0.4
		c0.3-1.6-0.6-3.2-2.2-3.7c-0.3,0.2-0.7,0.3-1,0.5C395.8,107.7,395.9,107.9,396.1,107.9z"/>
	<path id="XMLID_1484_" class="st17" d="M402.6,109c0.2,0,0.5-0.1,0.5-0.4l0.4-2.2c-0.1,0-0.3-0.1-0.5-0.1c-0.1,0-0.3-0.1-0.5-0.1
		l-0.4,2.2C402.2,108.7,402.3,109,402.6,109z"/>
	<path id="XMLID_1483_" class="st44" d="M399,129c-3.8-0.7-7.1-2.7-9.2-5.2l-0.6,3.1c1.9,2.7,5.2,4.1,9.1,4.9c3.7,0.7,7,0.7,9.7-0.9
		l0.5-2.8C405.8,129.2,402.4,129.6,399,129z"/>
	<path id="XMLID_1482_" class="st17" d="M389.6,113.8c-0.5,0-0.9,0.3-1,0.8l-0.2,1.1c0,0.1-0.1,0.2-0.2,0.1l0,0
		c-0.4-0.1-0.8,0.2-0.9,0.6L387,118c-0.1,0.3,0.1,0.6,0.5,0.7l0.2,0c0.1,0,0.2,0.1,0.1,0.2l-0.2,1.2c-0.1,0.5,0.1,0.9,0.6,1.1
		c0.6,0.2,1.2-0.1,1.3-0.7l1-5.5C390.6,114.4,390.1,113.8,389.6,113.8z"/>
	<path id="XMLID_1481_" class="st45" d="M388.5,117.9c-0.1,0-0.2-0.1-0.3-0.2c-0.1-0.1-0.1-0.2-0.1-0.3s0.1-0.2,0.2-0.3
		c0.2-0.1,0.5-0.1,0.7,0.1c0.1,0.1,0.1,0.2,0.1,0.3c0,0.1-0.1,0.2-0.2,0.3C388.7,117.9,388.6,117.9,388.5,117.9z"/>
	<path id="XMLID_1480_" class="st17" d="M417.5,141.3c0.8,0,1.5-0.6,1.7-1.5l0.3-1.7c0.1-0.3,0.4-0.6,0.7-0.5l0,0
		c0.6,0.1,1.1-0.2,1.2-0.8l0.6-2.9c0.1-0.6-0.2-1.1-0.8-1.2l0,0c-0.3-0.1-0.6-0.4-0.5-0.7l0.3-1.7c0.2-0.8-0.3-1.6-1-2
		c-1-0.4-2,0.3-2.2,1.2l-1.8,9.7C415.7,140.3,416.4,141.3,417.5,141.3z"/>
	<path id="XMLID_1479_" class="st45" d="M419.1,135.7c-0.2,0-0.4-0.1-0.5-0.4c-0.1-0.2-0.2-0.4-0.1-0.6s0.1-0.4,0.4-0.5
		c0.4-0.2,0.9-0.1,1.2,0.2c0.1,0.2,0.2,0.4,0.1,0.6s-0.1,0.4-0.4,0.5C419.5,135.7,419.3,135.8,419.1,135.7z"/>
	<path id="XMLID_1478_" class="st39" d="M416.1,110.7l-0.7-0.1l-0.9-1.3l0.1-0.7c0-0.2-0.1-0.5-0.4-0.5s-0.5,0.1-0.5,0.4l-0.1,0.7
		l-1.3,0.9l-0.7-0.1c-0.2,0-0.5,0.1-0.5,0.4c0,0.2,0.1,0.5,0.4,0.5l0.7,0.1l0.9,1.3l-0.1,0.7c0,0.2,0.1,0.5,0.4,0.5
		c0.2,0,0.5-0.1,0.5-0.4l0.1-0.7l1.3-0.9l0.7,0.1c0.2,0,0.5-0.1,0.5-0.4S416.4,110.8,416.1,110.7z"/>
	<path id="XMLID_147_" class="st39" d="M386.6,119.4l-0.3-0.1l-0.4-0.5l0.1-0.3c0-0.1,0-0.2-0.1-0.2s-0.2,0-0.2,0.1l-0.1,0.3
		l-0.5,0.4l-0.3-0.1c-0.1,0-0.2,0-0.2,0.1c0,0.1,0,0.2,0.1,0.2l0.3,0.1l0.4,0.5l-0.1,0.3c0,0.1,0,0.2,0.1,0.2c0.1,0,0.2,0,0.2-0.1
		l0.1-0.3l0.5-0.4l0.3,0.1c0.1,0,0.2,0,0.2-0.1C386.7,119.5,386.7,119.4,386.6,119.4z"/>
	<path id="XMLID_1477_" class="st17" d="M402.5,109.6c-5.8-1.1-11.4,2.1-12.2,6.5l-1.1,5.8c2.2,2.4,5.8,4.9,10.1,5.7
		c4.1,0.8,8.1-0.1,11-1.4l1.2-6.2C412.3,115.7,408.3,110.7,402.5,109.6z"/>
	<path id="XMLID_1476_" class="st21" d="M402.2,110.9c-5.8-1.1-11.2,1.5-11.9,5.2l-0.9,5c2.3,2.1,5.9,4.3,10.2,5.2
		c4.1,0.8,8.1,0.1,10.9-0.9l1-5.2C412.2,116.4,408,112.1,402.2,110.9z"/>
	<path id="XMLID_1475_" class="st0" d="M389.8,123.8l-0.2,1.2c1.9,2.7,5.2,4.1,9.1,4.9c3.7,0.7,7,0.7,9.7-0.9l0.2-1
		c-2.7,1.2-6.1,1.6-9.5,1C395.2,128.3,392,126.3,389.8,123.8z"/>
	<path id="XMLID_1474_" class="st22" d="M400.5,115c-0.2,0-0.4-0.3-0.4-0.5s0.2-0.5,0.5-0.4c0.6,0,1.3,0.1,1.9,0.3
		c0.2,0,0.4,0.3,0.4,0.5c0,0.2-0.3,0.4-0.5,0.4C401.8,115.2,401.2,115.1,400.5,115C400.5,115,400.5,115,400.5,115z"/>
	<path id="XMLID_1473_" class="st46" d="M401.2,110.8c-0.3-0.1-0.5-0.1-0.8-0.1c0,0-0.1,0-0.1,0c-0.6,0-1.1,0-1.6,0c0,0,0,0-0.1,0
		c-0.3,0-0.6,0-0.8,0.1l0,0c-0.8,0.1-1.6,0.3-2.4,0.5c-1.7,1.3-2.9,3.2-3.4,5.4c-0.5,2.4,0.1,4.8,1.4,6.7l0.9,1
		c1.6,0.8,3.3,1.4,5.3,1.8c1.7,0.3,3.3,0.4,4.9,0.3l1.4-0.7c1.9-1.3,3.3-3.3,3.7-5.7c0.4-2.3-0.1-4.5-1.1-6.3l0,0
		c-0.6-0.5-1.3-0.9-2-1.3l0,0c-0.2-0.1-0.5-0.2-0.7-0.4c0,0,0,0-0.1,0c-0.5-0.2-1-0.4-1.5-0.6c0,0-0.1,0-0.1,0
		c-0.2-0.1-0.5-0.2-0.8-0.2c0,0-0.1,0-0.1,0c-0.3-0.1-0.6-0.1-0.8-0.2c-0.3-0.1-0.6-0.1-0.9-0.1
		C401.4,110.8,401.3,110.8,401.2,110.8z"/>
	<path id="XMLID_1472_" class="st47" d="M405.7,126.4c0-0.2,0.1-0.4,0.1-0.6c0.2-0.9,0.1-1.6-0.1-2.3c1.2-1,2.1-2.3,2.4-3.9
		c0.7-3.7-2-7.4-6-8.2s-7.9,1.6-8.6,5.4c-0.3,1.6,0,3.2,0.8,4.5c-0.4,0.5-0.8,1.2-0.9,2.1c0,0.1-0.1,0.3-0.1,0.5
		c1.8,1,3.9,1.8,6.2,2.3C401.7,126.6,403.8,126.7,405.7,126.4z"/>
	<path id="XMLID_1471_" class="st48" d="M396.5,114.9c1.5-1.1,3.6-0.7,4.6,0.9"/>
	<path id="XMLID_1470_" class="st48" d="M401.2,115.8c1.5-1.1,3.6-0.7,4.6,0.9"/>
	
		<ellipse id="XMLID_1469_" transform="matrix(0.1867 -0.9824 0.9824 0.1867 207.4002 486.3553)" class="st0" cx="397.5" cy="117.9" rx="1.5" ry="1.5"/>
	
		<ellipse id="XMLID_1468_" transform="matrix(0.1867 -0.9824 0.9824 0.1867 211.5421 493.8721)" class="st0" cx="404.1" cy="119.2" rx="1.5" ry="1.5"/>
	<path id="XMLID_1467_" class="st49" d="M403.9,123.4c-0.9-1.3-2.6-1.7-3.9-1c-1-1.1-2.7-1.4-4-0.5c-0.2,0.1-0.3,0.4-0.1,0.7
		c0.1,0.2,0.4,0.3,0.7,0.1c0.9-0.6,2.2-0.4,2.9,0.5l-0.4,1.9c0,0.2,0.1,0.5,0.4,0.5s0.5-0.1,0.5-0.4l0.4-2c1-0.5,2.2-0.3,2.8,0.6
		c0.1,0.1,0.2,0.2,0.3,0.2c0.1,0,0.3,0,0.3-0.1C404,123.9,404.1,123.6,403.9,123.4z"/>
	<circle id="XMLID_1466_" class="st21" cx="397.8" cy="118" r="0.4"/>
	<circle id="XMLID_1465_" class="st21" cx="403.7" cy="119.1" r="0.4"/>
	<g>
		<g>
			<path class="st50" d="M392.5,150.2c-0.3-0.1-0.5,0.1-0.6,0.4s0.1,0.5,0.4,0.6c0.3,0.1,0.5-0.1,0.6-0.4S392.7,150.2,392.5,150.2z"
				/>
			<path class="st50" d="M397.3,152.2c-0.6-0.1-1.1,0-1.6,0.3c-0.5,0.3-0.8,0.7-0.9,1.3c-0.1,0.5,0,1.1,0.3,1.5
				c0.3,0.5,0.7,0.7,1.3,0.8c0.6,0.1,1.1,0,1.5-0.3c0.5-0.3,0.8-0.7,0.9-1.3c0.1-0.6,0-1.1-0.3-1.5
				C398.3,152.6,397.9,152.3,397.3,152.2z M397.6,155.1c-0.3,0.2-0.5,0.2-0.8,0.2c-0.3-0.1-0.5-0.2-0.7-0.5
				c-0.2-0.3-0.2-0.6-0.2-0.8c0-0.1,0.1-0.3,0.2-0.4c0.1-0.1,0.2-0.2,0.3-0.3c0.1-0.1,0.2-0.1,0.4-0.2c0.2,0,0.3-0.1,0.4,0
				c0.3,0.1,0.5,0.2,0.7,0.5c0.2,0.3,0.2,0.6,0.2,0.8C398,154.7,397.8,155,397.6,155.1z"/>
			<path class="st50" d="M389.3,151.2c-0.1-0.2-0.3-0.3-0.4-0.4c-0.2-0.1-0.4-0.2-0.6-0.2c-0.2,0-0.4,0-0.6,0c0,0,0,0,0,0
				c-0.2,0-0.3,0.1-0.5,0.2c0,0.1-0.1,0.1-0.2,0.2c-0.1-0.1-0.1-0.2-0.1-0.3c-0.1-0.2-0.2-0.3-0.4-0.4c0,0,0,0,0,0
				c-0.2-0.1-0.4-0.2-0.6-0.2c-0.2,0-0.5-0.1-0.7,0c-0.2,0-0.4,0.1-0.6,0.3c-0.2,0.1-0.3,0.3-0.4,0.5c-0.1,0.2-0.2,0.4-0.2,0.7
				l-0.4,2.2l0.9,0.2l0.4-2.1c0-0.2,0.1-0.3,0.1-0.4c0-0.1,0.1-0.2,0.2-0.3s0.2-0.1,0.3-0.2c0.1,0,0.2,0,0.3,0
				c0.3,0.1,0.5,0.2,0.6,0.4c0.1,0.1,0.1,0.2,0,0.3c0,0.1,0,0.3,0,0.4l0,0.1l-0.4,1.9l0.1,0l0.7,0.1l0.1,0l0.4-1.9l0-0.1
				c0-0.1,0.1-0.3,0.1-0.4c0.1-0.1,0.1-0.2,0.2-0.3c0.2-0.2,0.4-0.2,0.7-0.2c0.1,0,0.2,0.1,0.3,0.1c0.1,0.1,0.2,0.1,0.2,0.3
				c0.1,0.1,0.1,0.2,0.1,0.3s0,0.3,0,0.4l-0.4,2.1l0.9,0.2l0.4-2.2c0.1-0.3,0.1-0.5,0.1-0.7C389.5,151.6,389.4,151.4,389.3,151.2z"
				/>
			<path class="st50" d="M394.1,154.8c-0.2-0.1-0.1-0.4-0.2-0.5l0.3-1.7l0.7,0.1l0.2-0.8l-0.7-0.1l0.2-1.2l-0.9-0.2l-0.2,1.2
				l-0.5-0.1l-0.2,0.8l0.5,0.1l-0.3,1.8c0,0.3,0,0.8,0.5,1.2l0,0l0,0c0,0,0.1,0,0.1,0.1s0,0,0.1,0c0,0,0,0,0.1,0c0,0,0,0,0.1,0l0,0
				c0.1,0.1,0.2,0.1,0.5,0.2l0,0l0,0l0,0c0.1,0,0.1,0,0.2,0l0.2-0.8C394.3,155,394.2,154.8,394.1,154.8z"/>
			
				<rect x="388" y="152" transform="matrix(0.1867 -0.9824 0.9824 0.1867 167.8568 507.6236)" class="st50" width="5" height="0.9"/>
			
				<rect x="390" y="152.9" transform="matrix(0.1867 -0.9824 0.9824 0.1867 168.0714 509.6685)" class="st50" width="3.8" height="0.9"/>
		</g>
	</g>
</g>
<g id="XMLID_115_">
	<polygon id="XMLID_145_" class="st17" points="562.3,163.1 576.2,177 576.2,136.8 562.3,136.8 	"/>
	<path id="XMLID_144_" class="st17" d="M569.2,124.2c-3.6,2.1-5.9,5.7-6.7,9.7h13.4C575.2,130,572.8,126.4,569.2,124.2z"/>
	<path id="XMLID_143_" class="st17" d="M527.6,124.2c-3.6,2.1-5.9,5.7-6.7,9.7h13.4C533.6,130,531.2,126.4,527.6,124.2z"/>
	<polygon id="XMLID_142_" class="st17" points="520.7,177 534.6,163.1 534.6,136.8 520.7,136.8 	"/>
	<path id="XMLID_141_" class="st18" d="M562.6,134c-0.2,0.9-0.2,1.7-0.2,2.5v0.2h13.9v-0.2c0-0.9-0.1-1.7-0.2-2.5H562.6z"/>
	<path id="XMLID_140_" class="st18" d="M521,134c-0.2,0.9-0.2,1.7-0.2,2.5v0.2h13.9v-0.2c0-0.9-0.1-1.7-0.2-2.5H521z"/>
	<line id="XMLID_139_" class="st19" x1="576.2" y1="138.2" x2="584.5" y2="138.2"/>
	<line id="XMLID_138_" class="st19" x1="576.2" y1="164.5" x2="584.5" y2="164.5"/>
	<path id="XMLID_137_" class="st20" d="M558.1,182.5l-2.8-7v-19.4l7,7v-24.1c0-9.8-5.1-18.9-13.3-24.2c-0.3-0.2-0.8-0.2-1.1,0
		c-8.3,5.2-13.3,14.3-13.3,24.2v24.1l7-7v19.4l-2.8,7v1.5v2.8v0.1h19.4v-0.1L558.1,182.5L558.1,182.5z"/>
	<path id="XMLID_136_" class="st21" d="M577.6,195h-16.7c-0.4,0-0.7-0.5-0.4-0.9l1.8-7.4h13.9l1.8,7.4
		C578.3,194.5,578,195,577.6,195z"/>
	<path id="XMLID_135_" class="st21" d="M536,195h-16.7c-0.4,0-0.7-0.5-0.4-0.9l1.8-7.4h13.9l1.8,7.4C536.7,194.5,536.4,195,536,195z
		"/>
	<path id="XMLID_134_" class="st17" d="M555.4,175.6v-36.1c0-4.3-1.7-8.5-4.7-11.5c-1.2-1.2-3.1-1.2-4.3,0
		c-3.1,3.1-4.7,7.2-4.7,11.5v36.1l-2.8,7v4.2h19.4v-4.2L555.4,175.6z"/>
	<polygon id="XMLID_133_" class="st18" points="558.1,186.7 583.1,186.7 583.1,183.9 555.4,156.2 555.4,175.6 558.1,182.5 
		558.1,186.6 	"/>
	<polygon id="XMLID_132_" class="st18" points="538.7,186.6 538.7,183.9 538.7,182.5 541.5,175.6 541.5,156.2 513.8,183.9 
		513.8,186.7 538.7,186.7 	"/>
	<rect id="XMLID_131_" x="584.5" y="124.2" class="st19" width="9.7" height="70.8"/>
	<line id="XMLID_130_" class="st19" x1="594.2" y1="135.4" x2="584.5" y2="145.1"/>
	<line id="XMLID_129_" class="st19" x1="584.5" y1="145.1" x2="594.2" y2="154.8"/>
	<line id="XMLID_128_" class="st19" x1="594.2" y1="154.8" x2="584.5" y2="164.5"/>
	<line id="XMLID_127_" class="st19" x1="584.5" y1="164.5" x2="594.2" y2="174.2"/>
	<line id="XMLID_126_" class="st19" x1="594.2" y1="172.8" x2="584.5" y2="182.5"/>
	<line id="XMLID_125_" class="st19" x1="584.5" y1="182.5" x2="594.2" y2="192.2"/>
	<line id="XMLID_124_" class="st19" x1="594.2" y1="135.4" x2="584.5" y2="125.6"/>
	<rect id="XMLID_123_" x="585.9" y="115.9" class="st19" width="7" height="8.3"/>
	<polygon id="XMLID_122_" class="st22" points="516.5,181.1 513.8,183.9 513.8,186.7 538.7,186.7 538.7,186.6 538.7,183.9 
		538.7,182.5 539.3,181.1 	"/>
	<polygon id="XMLID_121_" class="st22" points="558.1,182.5 558.1,186.6 558.1,186.7 583.1,186.7 583.1,183.9 580.4,181.1 
		557.6,181.1 	"/>
	<path id="XMLID_120_" class="st21" d="M551.2,140.9h-5.6v-2.8c0-1.5,1.2-2.8,2.8-2.8l0,0c1.5,0,2.8,1.2,2.8,2.8L551.2,140.9
		L551.2,140.9z"/>
	<line id="XMLID_119_" class="st23" x1="545.7" y1="172.8" x2="545.7" y2="177"/>
	<line id="XMLID_118_" class="st23" x1="551.2" y1="172.8" x2="551.2" y2="177"/>
	<polygon id="XMLID_117_" class="st21" points="555.4,190.8 541.5,190.8 542.9,186.7 554,186.7 	"/>
	<line id="XMLID_116_" class="st23" x1="548.5" y1="186.6" x2="548.5" y2="181.1"/>
</g>
<g id="XMLID_76_">
	<path id="XMLID_114_" class="st24" d="M628.2,167h3.5l1,1c0.3,0.3,0.8,0.3,1.1,0c0.3-0.3,0.3-0.8,0-1.1l-1-1v-3.5
		c0-0.4-0.3-0.8-0.8-0.8c-0.4,0-0.8,0.3-0.8,0.8v3h-3c-0.4,0-0.8,0.3-0.8,0.8C627.5,166.6,627.8,167,628.2,167z"/>
	<polygon id="XMLID_113_" class="st12" points="631.5,162.9 631.5,162.9 623.7,155.2 623.7,155.2 622.6,156.2 630.4,164 	"/>
	<polygon id="XMLID_112_" class="st12" points="632.5,161.9 632.5,161.9 633.6,160.9 633.6,160.9 625.8,153.1 625.8,153.1 
		624.7,154.2 624.7,154.2 	"/>
	<polygon id="XMLID_111_" class="st12" points="628.4,166.1 628.4,166.1 629.4,165 621.6,157.2 620.6,158.3 620.6,158.3 	"/>
	<polygon id="XMLID_110_" class="st12" points="634.6,159.9 634.6,159.9 636.1,158.3 628.4,150.5 626.8,152.1 626.8,152.1 	"/>
	<polygon id="XMLID_109_" class="st12" points="617.5,161.4 617.5,161.4 615.9,162.9 623.7,170.7 625.3,169.2 625.3,169.2 	"/>
	<polygon id="XMLID_108_" class="st12" points="626.3,168.1 626.3,168.1 627.4,167.1 627.4,167.1 619.6,159.3 619.6,159.3 
		618.6,160.4 618.6,160.4 	"/>
	<polygon id="XMLID_107_" class="st25" points="633.6,160.9 633.6,160.9 634.6,159.9 634.6,159.9 626.8,152.1 626.8,152.1 
		625.8,153.1 625.8,153.1 	"/>
	<polygon id="XMLID_106_" class="st25" points="631.5,162.9 631.5,162.9 632.5,161.9 632.5,161.9 624.7,154.2 624.7,154.2 
		623.7,155.2 623.7,155.2 	"/>
	
		<rect id="XMLID_105_" x="625.3" y="155.1" transform="matrix(0.7071 -0.7071 0.7071 0.7071 69.805 489.7122)" class="st25" width="1.4" height="11"/>
	<polygon id="XMLID_104_" class="st25" points="627.4,167.1 627.4,167.1 628.4,166.1 628.4,166.1 620.6,158.3 620.6,158.3 
		619.6,159.3 619.6,159.3 	"/>
	<polygon id="XMLID_103_" class="st25" points="617.5,161.4 625.3,169.2 625.3,169.2 626.3,168.1 626.3,168.1 618.6,160.4 
		618.6,160.4 	"/>
	<path id="XMLID_102_" class="st24" d="M644.2,174.5h-3.5l-1-1c-0.3-0.3-0.8-0.3-1.1,0c-0.3,0.3-0.3,0.8,0,1.1l1,1v3.4
		c0,0.4,0.3,0.8,0.8,0.8s0.8-0.3,0.8-0.8v-3h3c0.4,0,0.8-0.3,0.8-0.8C644.9,174.9,644.6,174.5,644.2,174.5z"/>
	<polygon id="XMLID_101_" class="st3" points="629.5,187.7 619.1,177.3 623.3,175.2 631.6,183.5 	"/>
	<path id="XMLID_100_" class="st26" d="M655,152c-1.1-1.1-3-1.1-4.1,0c-0.9,0.9-1.1,2.4-0.4,3.6l-1.1,1.1c-0.3,0.3-0.3,0.8,0,1.1
		c0.1,0.1,0.3,0.3,0.5,0.3s0.4-0.1,0.5-0.3l1.1-1.1c0.4,0.3,0.9,0.4,1.4,0.4c0.8,0,1.5-0.3,2.1-0.9c0.6-0.6,0.9-1.3,0.9-2.1
		C655.9,153.3,655.6,152.5,655,152z M654,155.1c-0.6,0.6-1.5,0.6-2.1,0s-0.6-1.5,0-2.1c0.3-0.3,0.6-0.4,1.1-0.4s0.8,0.1,1.1,0.4
		c0.3,0.3,0.4,0.6,0.4,1.1C654.4,154.4,654.3,154.8,654,155.1z"/>
	<polygon id="XMLID_99_" class="st12" points="640.9,178.6 640.9,178.6 648.7,186.3 648.7,186.3 649.7,185.3 641.9,177.5 	"/>
	<polygon id="XMLID_98_" class="st12" points="639.8,179.6 639.8,179.6 638.8,180.6 638.8,180.6 646.6,188.4 646.6,188.4 
		647.6,187.3 647.6,187.3 	"/>
	<polygon id="XMLID_97_" class="st12" points="644,175.4 644,175.4 643,176.5 650.7,184.3 651.8,183.2 651.8,183.2 	"/>
	<polygon id="XMLID_96_" class="st12" points="637.8,181.6 637.8,181.6 636.2,183.2 644,191 645.5,189.4 645.5,189.4 	"/>
	<polygon id="XMLID_95_" class="st12" points="654.9,180.1 654.9,180.1 656.4,178.6 648.7,170.8 647.1,172.4 647.1,172.4 	"/>
	<polygon id="XMLID_94_" class="st12" points="646,173.4 646,173.4 645,174.4 645,174.4 652.8,182.2 652.8,182.2 653.8,181.1 
		653.8,181.1 	"/>
	<polygon id="XMLID_93_" class="st25" points="638.8,180.6 638.8,180.6 637.8,181.6 637.8,181.6 645.5,189.4 645.5,189.4 
		646.6,188.4 646.6,188.4 	"/>
	<polygon id="XMLID_92_" class="st25" points="640.9,178.6 640.9,178.6 639.8,179.6 639.8,179.6 647.6,187.3 647.6,187.3 
		648.7,186.3 648.7,186.3 	"/>
	
		<rect id="XMLID_91_" x="645.6" y="175.4" transform="matrix(0.7071 -0.7071 0.7071 0.7071 61.3886 510.013)" class="st25" width="1.4" height="11"/>
	<polygon id="XMLID_90_" class="st25" points="645,174.4 645,174.4 644,175.4 644,175.4 651.8,183.2 651.8,183.2 652.8,182.2 
		652.8,182.2 	"/>
	<polygon id="XMLID_89_" class="st25" points="654.9,180.1 647.1,172.4 647.1,172.4 646,173.4 646,173.4 653.8,181.1 653.8,181.1 	
		"/>
	<path id="XMLID_88_" class="st27" d="M645.7,167.5l-15.1,15.1l-6.2-6.2l15.1-15.1c1.7-1.7,4.5-1.7,6.2,0l0,0
		C647.4,163,647.4,165.8,645.7,167.5z"/>
	<path id="XMLID_87_" class="st3" d="M645.7,153c-2.3,2.3-2.3,6,0,8.3c2.3,2.3,6,2.3,8.3,0L645.7,153z"/>
	<g id="XMLID_78_">
		<circle id="XMLID_86_" class="st28" cx="622.1" cy="191.4" r="0.8"/>
		<circle id="XMLID_85_" class="st28" cx="616.9" cy="189.2" r="0.8"/>
		<circle id="XMLID_84_" class="st28" cx="618.4" cy="187.7" r="0.8"/>
		<circle id="XMLID_83_" class="st28" cx="619.9" cy="186.2" r="0.8"/>
		<circle id="XMLID_82_" class="st28" cx="621.4" cy="184.8" r="0.8"/>
		<path id="XMLID_81_" class="st28" d="M623.8,185.5c-0.4-0.1-0.8,0.1-0.9,0.5l-0.8,2.9c-0.1,0.4,0.1,0.8,0.5,0.9c0.1,0,0.1,0,0.2,0
			c0.3,0,0.6-0.3,0.8-0.6l0.8-2.9C624.4,186,624.1,185.7,623.8,185.5z"/>
		<circle id="XMLID_80_" class="st28" cx="614.8" cy="184.1" r="0.8"/>
		<path id="XMLID_79_" class="st28" d="M616.9,184.1c0.1,0,0.1,0,0.2,0l2.9-0.8c0.4-0.1,0.6-0.5,0.5-0.9c-0.1-0.4-0.5-0.6-0.9-0.5
			l-2.9,0.8c-0.4,0.1-0.6,0.5-0.5,0.9C616.4,183.8,616.6,184.1,616.9,184.1z"/>
	</g>
	
		<rect id="XMLID_77_" x="626.3" y="175.9" transform="matrix(0.7071 -0.7071 0.7071 0.7071 59.7547 497.4052)" class="st24" width="8" height="1.4"/>
</g>
<g id="XMLID_1_">
	<path id="XMLID_33_" class="st12" d="M158.1,127l-1.3,0.7l-3.1-1l-0.7-1.3c-0.3-0.4-0.8-0.6-1.3-0.4c-0.4,0.3-0.6,0.8-0.4,1.3
		l0.7,1.3l-1,3.1l-1.3,0.7c-0.4,0.3-0.6,0.8-0.4,1.3c0.3,0.4,0.8,0.6,1.3,0.4l1.3-0.7l3.1,1l0.7,1.3c0.3,0.4,0.8,0.6,1.3,0.4
		c0.4-0.3,0.6-0.8,0.4-1.3l-0.7-1.3l1-3.1l1.3-0.7c0.4-0.3,0.6-0.8,0.4-1.3C159.1,126.9,158.6,126.7,158.1,127z"/>
	<ellipse id="XMLID_32_" class="st13" cx="163.6" cy="166" rx="8.9" ry="8.9"/>
	<path id="XMLID_31_" class="st14" d="M142.6,133.9l18.8,15.1c2.7,2.2,5.5,4.3,8.5,6c5.1,2.9,7.7,9.2,5.8,14.9l0,0
		c-1.9,5.8-7.6,9.3-13.5,8.7c-3.6-0.4-7.2-0.3-10.9-0.2l-23.4,1.1"/>
	<line id="XMLID_30_" class="st15" x1="155" y1="154" x2="149.5" y2="151.5"/>
	<line id="XMLID_29_" class="st15" x1="149" y1="146.4" x2="142.6" y2="142.3"/>
	<line id="XMLID_28_" class="st15" x1="142.3" y1="152" x2="136.9" y2="149.5"/>
	<line id="XMLID_27_" class="st15" x1="139.9" y1="163.8" x2="134" y2="162.6"/>
	<line id="XMLID_26_" class="st15" x1="134.5" y1="169.7" x2="129.1" y2="169.4"/>
	<line id="XMLID_25_" class="st15" x1="149.2" y1="169.6" x2="143.3" y2="168.4"/>
	<line id="XMLID_24_" class="st14" x1="151.3" y1="161.1" x2="137.3" y2="156.7"/>
	<circle id="XMLID_23_" class="st16" cx="125.5" cy="150.1" r="0.9"/>
	<circle id="XMLID_22_" class="st16" cx="138.5" cy="144.4" r="0.9"/>
	<circle id="XMLID_21_" class="st16" cx="154.6" cy="148.9" r="0.9"/>
	<circle id="XMLID_20_" class="st16" cx="146.1" cy="155.3" r="0.9"/>
	<g id="XMLID_9_">
		<circle id="XMLID_19_" class="st12" cx="168.2" cy="165.2" r="0.9"/>
		<circle id="XMLID_18_" class="st12" cx="170.7" cy="166" r="0.9"/>
		<circle id="XMLID_17_" class="st12" cx="167.4" cy="167.7" r="0.9"/>
		<circle id="XMLID_16_" class="st12" cx="169.9" cy="168.5" r="0.9"/>
		<circle id="XMLID_15_" class="st12" cx="164" cy="169.5" r="0.9"/>
		<circle id="XMLID_14_" class="st12" cx="166.5" cy="170.3" r="0.9"/>
		<circle id="XMLID_13_" class="st12" cx="165.7" cy="172.8" r="0.9"/>
		<circle id="XMLID_12_" class="st12" cx="169.1" cy="171.1" r="0.9"/>
		<circle id="XMLID_11_" class="st12" cx="169" cy="162.6" r="0.9"/>
		<circle id="XMLID_10_" class="st12" cx="165.2" cy="165.6" r="0.9"/>
	</g>
	<circle id="XMLID_8_" class="st16" cx="129.8" cy="158.4" r="0.9"/>
	<circle id="XMLID_7_" class="st16" cx="121" cy="164" r="0.9"/>
	<circle id="XMLID_6_" class="st16" cx="129.6" cy="143.7" r="0.9"/>
	<circle id="XMLID_5_" class="st16" cx="145" cy="163.3" r="0.9"/>
	<circle id="XMLID_3_" class="st16" cx="140.4" cy="173.1" r="0.9"/>
	<circle id="XMLID_2_" class="st16" cx="129.1" cy="175.7" r="0.9"/>
</g>
<g>
	<path class="st4" d="M88.4,134.5l-2.8,1.7l-1.8-2.9l-17.2,10.5l1.8,3l-2.8,1.7l-3.5-5.7l10-6.1c-0.7-0.5-1.3-1-2-1.3l2.7-2.3
		c0.7,0.5,1.5,1.1,2.3,1.8l9.8-6L88.4,134.5z M84.5,136.2l1.6,2.6l-6,3.7l2,3.3l9.8-6l1.6,2.7l-9.8,6l3.3,5.4
		c1.1,1.9,0.7,3.5-1.4,4.7l-3.9,2.4l-2.3-2.3c1.3-0.7,2.5-1.3,3.7-2c0.9-0.5,1.1-1.1,0.7-1.8l-2.9-4.7l-10.6,6.5l-1.6-2.7l10.6-6.5
		l-2-3.3l-6.7,4.1l-1.6-2.6L84.5,136.2z"/>
	<path class="st4" d="M114.6,118.6l-2.7,1.6l-2-3.2l-16.9,10.4l2,3.2l-2.7,1.6l-3.5-5.7l9.8-6c-0.8-0.5-1.5-0.9-2.3-1.2l2.7-2.3
		c0.8,0.5,1.6,1.1,2.5,1.7l9.6-5.9L114.6,118.6z M123.2,135.9l-2.7,1.6l-0.8-1.3l-14.1,8.6l0.8,1.3l-2.7,1.6l-9.6-15.6l8.3-5.1
		l-1.8-3l2.7-1.7l1.8,3l8.4-5.1L123.2,135.9z M106.1,132.9l-2-3.3l-5.6,3.4l2,3.3L106.1,132.9z M109.7,138.9l-2.1-3.5l-5.6,3.4
		l2.1,3.5L109.7,138.9z M108.8,131.3l5.7-3.5l-2-3.3l-5.7,3.5L108.8,131.3z M118.2,133.7l-2.1-3.5l-5.7,3.5l2.1,3.5L118.2,133.7z"/>
</g>
<g id="XMLID_46_">
	<g id="XMLID_47_">
		<path id="XMLID_48_" class="st51" d="M92.9,78.5c-2.4-3.8-8.5-4.5-17.4-1.9c-0.2,0-0.4,0.1-0.5,0.2l-3.9-2.8
			c-4.5-3.4-10.5-4.5-15.9-2.9c-1.5,0.5-2.9,1.1-4.3,1.9c-3.1,1.9-5.5,4.7-7,8.1c-1.5,3.3-1.9,6.9-1.3,10.4l0.8,4.8
			c-2.9,2.9-5,5.8-6.3,8.5c-1.9,4.2-1.3,6.8-0.4,8.3c2.4,3.8,8.5,4.5,17.4,1.8c0.2-0.1,0.5-0.1,0.6-0.2l7.4,4.6L87,104l-0.7-8.6
			c2.9-2.9,5.1-5.9,6.3-8.6C94.5,82.6,93.8,80,92.9,78.5z M46.3,90.8L46.3,90.8c-1.1-5.9,1.5-11.6,6.5-14.6c1.1-0.6,2.2-1.2,3.4-1.5
			c4.3-1.3,9-0.4,12.6,2.3l2.5,1.8l-24.5,15L46.3,90.8z M46.5,98.3l28.9-17.8c0.4-0.1,0.8-0.2,1.2-0.4c5-1.5,9.2-1.8,11.5-1
			l-48.5,29.8C39.9,106.6,42,102.9,46.5,98.3z M83.1,102l-20.9,12.9l-3.6-2.2l24.1-14.8L83.1,102z M83.1,93.2L54.2,111
			c-0.4,0.1-0.8,0.2-1.2,0.3c-5,1.5-9.2,1.8-11.5,1l48.5-29.8C89.8,84.8,87.7,88.5,83.1,93.2z"/>
	</g>
</g>
<g>
	<g>
		<path class="st4" d="M197.8,90.8l-2.6-2.2c2.2-3.4,3.3-7.5,3.3-12.5h3.4c0,1.4-0.1,2.7-0.2,3.9l5.3-1l-0.9-5l3.2-0.6l0.9,5
			l9.6-1.8l0.6,3.1l-9.6,1.8l1.1,5.9l9-1.7l0.6,3.1l-9,1.7l1.2,6.6l11.6-2.2l0.6,3.2l-27,5.1l-0.6-3.2l12.2-2.3l-1.2-6.6l-8.6,1.6
			l-0.6-3.1l8.6-1.6l-1.1-5.9l-6.4,1.2C200.4,86.1,199.3,88.7,197.8,90.8z"/>
		<path class="st4" d="M238.9,67.5c0.1,1,0.1,2,0,2.9l11.3-2.1l0.6,3.1l-9,1.7c2,2.6,6,4.3,11.9,4.9l-1.2,3.1
			c-7.1-1.1-11.7-3.6-14-7.3c-0.4,1.8-0.9,3.3-1.7,4.8c1.4,0.6,2.9,1.5,4.7,2.5l-1.8,2.6c-1.5-1-3-2-4.6-2.9
			c-1.8,1.8-4.4,3.6-7.7,5.2l-1.8-2.7c4.1-1.9,6.8-3.9,8.3-6.2c0.5-0.8,0.9-1.6,1.2-2.6l-9.2,1.7l-0.6-3.1l10.4-1.9
			c0.1-1.1,0.1-2.2,0-3.3L238.9,67.5z M232.7,87.7c-0.1,3.3-0.6,6.2-1.5,8.8l-3.1-1.2c0.8-2.5,1.3-5,1.3-7.7L232.7,87.7z
			 M239.1,95.9c-2.3,0.4-3.7-0.6-4.1-3l-1.2-6.3l3.2-0.6l1,5.6c0.1,0.8,0.6,1.1,1.4,1l6.2-1.2c0.5-0.1,0.8-0.3,1-0.7
			c0.2-0.4,0.2-1.5,0-3.3l3.2,0.4c0.3,2.8,0.1,4.6-0.4,5.2c-0.5,0.6-1.3,1-2.6,1.3L239.1,95.9z M245.3,88.5l-2.7,1.9
			c-1.2-1.9-2.4-3.5-3.6-4.9l2.6-1.5C243,85.4,244.2,86.9,245.3,88.5z M256,89.6l-2.7,1.9c-1.7-2.6-3.4-4.9-5.2-6.8l2.9-1.6
			C252.8,85,254.5,87.2,256,89.6z"/>
	</g>
</g>
<g>
	<g>
		<path class="st4" d="M348.9,90.4l-2.1-2.5c1.6-1.8,3.1-4.4,4.2-7.8l2.9,0.6c-0.2,0.6-0.4,1.2-0.6,1.7h6.5v-2h3.3v2h9.8v2.8H363
			v2.2h8.7v2.7H363v2.2h11.2v2.9h-26.3v-2.9h11.9v-2.2h-8.2v-2.7h8.2v-2.2H352C351,87.3,350,89,348.9,90.4z M371.1,68.2v11.5h-20.6
			V68.2H371.1z M367.8,72.7V71h-14.2v1.8H367.8z M367.8,75.2h-14.2V77h14.2V75.2z"/>
		<path class="st4" d="M380.5,78.5v-6.3H377v-3h10v3h-3.3v6.3h2.6v3h-2.6v5.1c1.1-0.5,2.2-1,3.3-1.5v3.1c-3.1,1.5-6.3,2.8-9.8,3.9
			l-0.8-3.2c1.4-0.3,2.7-0.6,4-1v-6.3h-3.2v-3H380.5z M394,72.4v-4.9h3.1v4.9h3.8c-0.8-0.9-1.8-1.9-3.1-2.9l1.8-1.8
			c1.5,1.1,2.8,2.3,3.8,3.4l-1.2,1.2h1.8v3.1h-7v2.7c0.4,1.1,0.8,2.2,1.3,3.3c1.2-1.4,2.2-2.9,3.2-4.6l2.4,1.8
			c-1.4,2.2-2.8,4-4.2,5.5c1.5,2.6,3.4,4.8,5.6,6.8l-2.2,2.6c-2.5-2.5-4.5-5.4-6.1-8.7v7.8c0,2-1.1,3.1-3.2,3.1h-3.2l-0.7-3
			c1,0.1,1.9,0.2,2.8,0.2c0.7,0,1.1-0.4,1.1-1.1V86c-1.9,2.6-4,4.8-6.4,6.6l-1.7-2.8c3-2,5.7-4.7,8-8.1v-6.3h-6.7v-3.1H394z
			 M392.8,82.5l-2.2,1.6c-0.8-1.6-1.9-3.3-3.4-5.2l2.5-1.6C391,79.2,392,81,392.8,82.5z"/>
	</g>
</g>
<g id="XMLID_52_">
	<g id="XMLID_53_">
		<path id="XMLID_54_" class="st37" d="M398.3,18.5c-5.8-5.8-13.5-9.1-21.8-9.1c-8.2,0-15.9,3.2-21.8,9c-5.8,5.8-9,13.6-9,21.8
			c0,6.2,1.8,12.1,5.2,17.2l1.7,2.5l1.4-2.6c1.1-2.1,3-3.5,5.2-4.1l1-0.2l0.3-1c0.8-2.6,3.2-4.5,6-4.5c0.5,0,1.1,0.1,1.6,0.2
			l1.5,0.4l0.7-1.3c1.8-4.1,5.9-6.8,10.5-6.8c6.3,0,11.4,5.2,11.4,11.4v1.5l1.4,0.3c2.3,0.5,4.2,2,5.4,4.1l1.4,2.6l1.7-2.5
			c3.5-5.1,5.2-11,5.2-17.2C407.3,32,404.1,24.2,398.3,18.5z M391.5,17.5c3.4,2.2,6.2,5.3,8.4,8.8h-5.1c-0.5-1.5-1.8-2.8-3.3-3.3
			V17.5z M376.5,13c4.1,0,7.9,0.9,11.4,2.5v7.5c-0.8,0.3-1.5,0.8-2.1,1.3l-3.9-1.8c0-0.2,0-0.3,0-0.5c0-3-2.5-5.4-5.4-5.4
			c-1.3,0-2.5,0.5-3.5,1.3l-5.7-3.3C370.2,13.6,373.3,13,376.5,13z M378.3,22.1c0,1-0.8,1.8-1.8,1.8s-1.8-0.8-1.8-1.8
			c0-0.9,0.8-1.8,1.8-1.8S378.3,21.1,378.3,22.1z M357.5,49.9c-1.8,0.6-3.5,1.7-4.9,3.2c-2.2-3.9-3.2-8.4-3.2-12.9c0-1,0.1-2,0.2-3
			h5.1c0.7,2.1,2.7,3.5,5,3.6l1.5,4.8C359.5,46.6,358.3,48.2,357.5,49.9z M359.7,37.2c-1,0-1.8-0.8-1.8-1.8s0.8-1.8,1.8-1.8
			s1.8,0.8,1.8,1.8S360.7,37.2,359.7,37.2z M361.9,30.5c-0.7-0.3-1.5-0.5-2.2-0.5c-2.4,0-4.4,1.5-5.1,3.6h-4.5
			c1.8-7.3,6.7-13.5,13.1-17.1l7.9,4.5c0,0.3,0,0.6,0,1c0,0.5,0.1,1.1,0.2,1.5L361.9,30.5z M385,36.9c-1.3-0.4-2.8-0.6-4.2-0.6
			c-5.5,0-10.5,2.9-13.1,7.6c-0.4,0-0.7-0.1-1.1-0.1c-0.8,0-1.5,0.1-2.2,0.2l-1.5-4.5c1.3-1,2.1-2.5,2.1-4.3c0-0.8-0.2-1.7-0.5-2.4
			l8.9-6.5c0.8,0.6,1.9,0.9,3.1,0.9c1.5,0,2.8-0.6,3.8-1.6l4,1.8c0,0.2,0,0.3,0,0.5c0,1.8,0.8,3.3,2.2,4.3L385,36.9z M389.7,26.4
			c1,0,1.8,0.8,1.8,1.8s-0.8,1.8-1.8,1.8c-0.9,0-1.8-0.8-1.8-1.8S388.7,26.4,389.7,26.4z M400.4,53.1c-1.3-1.4-2.9-2.5-4.7-3.1
			c-0.5-4.9-3.3-9.2-7.4-11.6l1.5-4.8c2.3-0.1,4.2-1.5,4.9-3.6h6.8c1.3,3.2,2,6.6,2,10.2C403.7,44.8,402.6,49.2,400.4,53.1z"/>
	</g>
</g>
<circle id="XMLID_74_" class="st12" cx="213.5" cy="54.2" r="0.8"/>
<circle id="XMLID_73_" class="st12" cx="209.7" cy="33.1" r="0.8"/>
<circle id="XMLID_72_" class="st12" cx="224.9" cy="32.4" r="0.8"/>
<circle id="XMLID_71_" class="st12" cx="241.4" cy="18" r="0.8"/>
<circle id="XMLID_70_" class="st12" cx="245.2" cy="33.1" r="0.8"/>
<circle id="XMLID_40_" class="st12" cx="212.1" cy="42.9" r="1.9"/>
<circle id="XMLID_39_" class="st12" cx="235.6" cy="54.9" r="1.9"/>
<circle id="XMLID_41_" class="st12" cx="259.6" cy="52.9" r="3.1"/>
<circle id="XMLID_38_" class="st12" cx="245.2" cy="45.2" r="1.4"/>
<circle id="XMLID_34_" class="st12" cx="257.2" cy="37.2" r="1.4"/>
<circle id="XMLID_37_" class="st12" cx="237.5" cy="37.1" r="2.2"/>
<circle id="XMLID_36_" class="st12" cx="224.1" cy="21" r="0.8"/>
<circle id="XMLID_35_" class="st12" cx="209.7" cy="18" r="0.8"/>
<path id="XMLID_709_" class="st52" d="M656.3,69.8c-2.2-0.2-4.4,0.3-6.4,1.2c-2.7,1.3-5.9,2-9.2,1.7c-3.3-0.3-6.4-1.4-8.8-3.2
	c-1.3-1-2.8-1.6-4.4-2c-0.3,0-0.4,0-0.6,0.1c0.3,0.6,0.7,1.2,1.1,1.8c1,0.3,2.1,0.8,3,1.5c2.7,2,6,3.2,9.7,3.5
	c3.6,0.3,7.1-0.3,10.1-1.9c1.6-0.8,3.6-1.2,5.4-1.1l9.6,0.8c0.4-0.5,0.8-0.9,1.3-1.4c-0.1-0.1-0.3-0.2-0.5-0.2L656.3,69.8
	L656.3,69.8z"/>
<path id="XMLID_708_" class="st52" d="M721.7,76.5L707,75.3c-3-0.3-5.8-1.3-8.2-3.1c-1.8-1.3-4.2-2.2-6.7-2.4s-5,0.2-7,1.2
	c-2.6,1.4-5.6,1.9-8.6,1.7l-3-0.3c0,0,0,0-0.1,0c0,0.6,0,1.1,0.1,1.6l2.9,0.2c3.3,0.3,6.6-0.4,9.5-1.9c1.8-0.9,3.9-1.3,6.1-1.1
	c2.2,0.2,4.3,0.9,5.8,2.1c2.7,1.9,5.8,3.1,9.1,3.4l14.6,1.2c0.1-0.6,0.2-1.1,0.3-1.6C721.8,76.5,721.8,76.5,721.7,76.5z"/>
<path id="XMLID_707_" class="st52" d="M692.6,79.9c-3.3-0.3-6.6,0.4-9.5,1.9c-1.8,0.9-3.9,1.3-6.1,1.1c-2.2-0.2-4.3-0.9-5.8-2.1
	c-2.7-1.9-5.8-3.1-9.1-3.4l-1.3-0.1c-0.1,0-0.2,0-0.3,0c0.1,0.6,0.3,1.1,0.6,1.7l0.9,0.1c3,0.3,5.8,1.3,8.2,3.1
	c1.8,1.3,4.2,2.2,6.7,2.4s5-0.2,7-1.2c2.6-1.4,5.6-1.9,8.6-1.7l12.7,1.1c0.3-0.5,0.5-1,0.8-1.6c-0.1,0-0.2-0.1-0.3-0.1L692.6,79.9z"
	/>
<path id="XMLID_706_" class="st52" d="M695.7,91l-9.3-0.8c-0.4,0-0.8,0.3-0.9,0.7c0,0.4,0.3,0.8,0.7,0.9l8.1,0.7
	c0.7-0.3,1.4-0.7,2-1.1C696.3,91.2,696.1,91,695.7,91z"/>
<path id="XMLID_705_" class="st52" d="M696.6,69.2c0,0.4,0.3,0.8,0.7,0.9l15.8,1.3c0,0,0,0,0.1,0c0-0.6,0-1.1-0.1-1.6l-15.6-1.3
	C697,68.4,696.6,68.7,696.6,69.2z"/>
<path id="XMLID_704_" class="st52" d="M682,63c0,0.4,0.3,0.8,0.7,0.9l24.7,2.1c0.1,0,0.2,0,0.3,0c-0.1-0.6-0.2-1.1-0.4-1.7l-24.4-2
	C682.4,62.2,682,62.5,682,63z"/>
<path id="XMLID_703_" class="st10" d="M671.6,66.3c0.4,0,0.8-0.3,0.9-0.7c0-0.4-0.3-0.8-0.7-0.9l-11.2-0.9c-0.2,0.6-0.3,1-0.4,1.6
	c0,0,0.1,0,0.1,0L671.6,66.3L671.6,66.3z"/>
<path id="XMLID_702_" class="st10" d="M699.9,59.4c0,0.4,0.3,0.8,0.7,0.9l4.9,0.4c0.1,0,0.3,0,0.4-0.1c-0.3-0.6-0.5-1.1-0.8-1.6
	l-4.4-0.4C700.4,58.7,700,59,699.9,59.4z"/>
<path id="XMLID_701_" class="st53" d="M669,57.7c0.4,0,0.8-0.3,0.9-0.7c0-0.4-0.3-0.8-0.7-0.9l-4.4-0.4c-0.4,0.5-0.7,0.9-1.1,1.5
	c0.1,0.1,0.2,0.1,0.4,0.2L669,57.7L669,57.7z"/>
<path id="XMLID_700_" class="st10" d="M666.8,61.7c0.4,0,0.8-0.3,0.9-0.7c0-0.4-0.3-0.8-0.7-0.9l-4.8-0.4c-0.2,0.5-0.5,1-0.7,1.5
	c0.1,0.1,0.2,0.1,0.4,0.2L666.8,61.7L666.8,61.7z"/>
<ellipse id="XMLID_696_" transform="matrix(8.301574e-02 -0.9965 0.9965 8.301574e-02 561.6163 706.4669)" class="st10" cx="664.7" cy="48.1" rx="0.8" ry="0.8"/>
<ellipse id="XMLID_695_" transform="matrix(8.301576e-02 -0.9965 0.9965 8.301576e-02 558.0018 729.5103)" class="st10" cx="675.4" cy="61.5" rx="0.8" ry="0.8"/>
<ellipse id="XMLID_694_" transform="matrix(8.301570e-02 -0.9965 0.9965 8.301570e-02 556.4648 735.0101)" class="st10" cx="677.6" cy="65.1" rx="0.8" ry="0.8"/>
<circle id="XMLID_692_" class="st10" cx="665.2" cy="91.7" r="0.8"/>
<circle id="XMLID_691_" class="st10" cx="661" cy="85.8" r="0.8"/>
<ellipse id="XMLID_690_" transform="matrix(8.301570e-02 -0.9965 0.9965 8.301570e-02 570.6101 712.4991)" class="st10" cx="672.5" cy="46.2" rx="0.8" ry="0.8"/>
<ellipse id="XMLID_689_" transform="matrix(8.301572e-02 -0.9965 0.9965 8.301572e-02 585.3627 749.8952)" class="st10" cx="700.2" cy="56.9" rx="0.8" ry="0.8"/>
<ellipse id="XMLID_688_" transform="matrix(8.301570e-02 -0.9965 0.9965 8.301570e-02 552.3644 787.0602)" class="st10" cx="703.9" cy="93.4" rx="0.8" ry="0.8"/>
<g id="XMLID_49_">
	<g id="XMLID_50_">
		<path id="XMLID_51_" class="st53" d="M703.2,79.1c-0.7-0.3-1.3-0.6-2-0.8c3.3-8.3-0.2-18-8.3-22.2c-3.4-1.8-7.2-2.3-10.9-1.8
			l0.6,3.9c2.9-0.5,5.8,0,8.5,1.4c6.7,3.4,9.4,11.7,5.9,18.4c-0.1,0.2-0.2,0.4-0.3,0.7l-1.5,2.6l2.9,0.4c1.2,0.1,2.3,0.5,3.3,1
			c4.8,2.5,6.7,8.4,4.2,13.2c-2.5,4.8-8.4,6.7-13.2,4.2c-2.9-1.5-4.9-4.4-5.3-7.6l-2.5-22.8c-0.7-5.9-4.2-11-9.5-13.7
			c-8.6-4.4-19.3-1-23.7,7.6c-4.4,8.6-1,19.3,7.6,23.7c4.1,2.1,8.8,2.5,13.1,1.2l6.8-2.1l-1.1-3.7l-6.8,2.1c-3.4,1-7,0.7-10.2-0.9
			c-6.7-3.4-9.4-11.7-5.9-18.4s11.7-9.5,18.5-6c4.1,2.1,6.9,6,7.4,10.6l2.5,22.7c0.6,4.6,3.3,8.6,7.4,10.6c6.7,3.4,15,0.7,18.4-5.9
			C712.6,90.8,709.9,82.6,703.2,79.1z"/>
	</g>
</g>
<path id="XMLID_680_" class="st10" d="M39.3,76.8h-1.6l-2.4-2.4v-1.6c0-0.5-0.4-0.9-0.9-0.9c-0.5,0-0.9,0.4-0.9,0.9v1.6l-2.4,2.4
	h-1.6c-0.5,0-0.9,0.4-0.9,0.9s0.4,0.9,0.9,0.9h1.6l2.4,2.4v1.6c0,0.5,0.4,0.9,0.9,0.9c0.5,0,0.9-0.4,0.9-0.9v-1.5l2.4-2.4h1.6
	c0.5,0,0.9-0.4,0.9-0.9C40.2,77.2,39.8,76.8,39.3,76.8z"/>
<circle id="XMLID_677_" class="st10" cx="50.5" cy="60.4" r="0.9"/>
<circle id="XMLID_678_" class="st10" cx="19.2" cy="73.1" r="0.9"/>
<circle id="XMLID_675_" class="st10" cx="8.8" cy="92.6" r="0.9"/>
<g>
</g>
<g>
</g>
<g>
</g>
<g>
</g>
<g>
</g>
<g>
</g>
<g>
</g>
<g>
</g>
<g>
</g>
<g>
</g>
<g>
</g>
<g>
</g>
<g>
</g>
<g>
</g>
<g>
</g>
</svg>
